<?xml version="1.0" encoding="utf-8"?>
<!-- Generator: Adobe Illustrator 18.1.1, SVG Export Plug-In . SVG Version: 6.00 Build 0)  -->
<!DOCTYPE svg PUBLIC "-//W3C//DTD SVG 1.0//EN" "http://www.w3.org/TR/2001/REC-SVG-20010904/DTD/svg10.dtd">
<svg version="1.0" id="Layer_1" xmlns="http://www.w3.org/2000/svg" xmlns:xlink="http://www.w3.org/1999/xlink" x="0px" y="0px"
	 viewBox="-3 255.2 768 767.9" enable-background="new -3 255.2 768 767.9" xml:space="preserve" preserveAspectRatio="none slice" >
<g id="Layer_2">
	<path fill="#1761AA"  d="M764.5,255.3H763h-3.2h-8.4c-0.1,0.5-0.1,0.9-0.1,1.4s0,1,0.1,1.5l-28.6,9.8l-0.8-12.6h-3.1l0.8,11.7
		l-17.4-11.8h-5.5l20.7,14l-43.2,13.9l2.1-27.9h-3.1l-2.2,27.3l-37-26.4c0.2-0.3,0.4-0.6,0.5-0.9h-1.8h-5.3h-1h-1.8h-4h-1.1
		c0.2,0.2,0.3,0.5,0.5,0.8l-19,22.8c-1.5-0.5-3-0.8-4.6-0.7l-1.9-22.9h-3l1.9,23.4c-1.2,0.4-2.2,1-3.1,1.7l-16.5-15.5
		c0.8-1.2,1.2-2.8,1.2-4.6c0-2-0.5-3.7-1.5-5h-3.9h-4.2h-1.1h-3.5h-2.1c-0.8,1.2-1.4,2.8-1.5,4.5l-36.4-4.5h-10.8h-1.5h-1.5h-3.2
		l0,0l-1.5,0.2v0.4L466.9,268l-0.9-12.7h-3.1l0.8,11.7l-17.2-11.7H441l20.7,14l-43.2,13.9l2.1-27.9h-3.1l-2.2,27.3L377,255.3h-0.8
		h-4.5h-0.9H369h-3.8H365L342.7,282c-0.5-0.1-1.1-0.1-1.6-0.1l-2.3-26.6h-3.1l2.2,27.3c-0.2,0.1-0.5,0.2-0.7,0.4l-17.5-16.4
		c1.2-1.5,1.9-3.6,1.9-6.1c0-2-0.5-3.8-1.3-5.1h-6.5h-4.2h-1.1H305h-2.9c-0.7,1.2-1.2,2.8-1.2,4.5l-35.7-4.5h-5.9h-4.9H253h-1.5
		h-3.2h-4.9c0,0.5,0.1,1.1,0.2,1.6l-32.3,11.1l-1-12.7h-3.1l0.8,11.7l-17.3-11.8h-5.5l20.7,14l-43.2,13.9l2.2-27.9h-3.1l-2.2,27.3
		l-37.8-27c0.1-0.2,0.1-0.3,0.2-0.4h-0.7h-5.4h-1h-1.8H109h-1.8c0.2,0.5,0.4,1,0.6,1.5l-19.4,23.1c-1.2-0.3-2.4-0.5-3.5-0.3l-2-24.2
		h-3.1l2.1,25.3c-0.6,0.4-1.2,0.8-1.7,1.3l-19.6-18.4c0.2-0.5,0.2-1.2,0.2-1.8c0-2.8-1.5-4.8-3.4-5.8l0.5-0.5h-1.7h-2.5h-1.1h-1.1
		h-2.4l0.5,0.9c-1.2,0.8-2.2,2.2-2.5,3.8l-37.8-4.8H2.8h-4.3H-3v1.6v1.3v7.1c1.2-0.5,2.3-1.1,3.2-2l18.3,29.5
		c-0.9,1-1.5,2.3-1.5,4.1c0,0.9,0.2,1.8,0.5,2.5l-19.2,13.1L-3,295.8v17.7v1.8v2.6v0.3l0.1-0.2l17.6,24.3c-0.6,0.7-1.1,1.6-1.4,2.7
		L-3,347v3.1l16.2-2c0.5,3.1,2.8,4.8,5.5,5.2l4.5,33.3L-3,366.3v3.9L23.8,391l0,0l-26.2,26.9l-0.6-2.2v2.8v2.2v1.5v1.2v0.2v78.6v6.4
		v2.6v1.6v1.3v6.6c1.2-0.1,2.5-0.4,3.5-0.8L18,548c-1.5,1.2-2.5,3-2.5,5.5c0,1.1,0.2,2,0.5,2.8l-17.7,12.2L-3,551.6v17.7v1.8v2.6
		v0.3l0.1-0.2L14.5,598c-0.7,0.7-1.2,1.7-1.4,2.8l-16.1,2v3.1l16.3-2c0.7,2.5,2.9,3.8,5.2,4.1l4.7,34.4L-3,622.2v3.9l26.8,20.8l0,0
		l-26.1,26.8l-0.7-2.1v2.8v2.2v1.5v1.2v0.2v79.7v5.3v2.6v1.6v1.3v5.3c0.9-0.2,1.8-0.5,2.8-0.9l20.7,33.3l1.3-0.8l-1.2,0.9l1.6,2.3
		h-0.4l-0.8-1.2l-22.7,15.4L-3,807.6v17.7v1.8v2.6v0.3l0.1-0.2l18,25c-0.5,0.5-0.8,1.2-1.1,1.9l-17,2.1v3.1l17-2.1
		c0.6,2.2,2.5,3.5,4.5,3.7l4.8,34.9L-3,877.9v3.9l26.8,20.8l0,0l-26.2,26.9l-0.6-2v2.8v2.2v1.5v1.2v0.2v80.4v4.6v2.6h1.5h4.3h6.5
		l-6.7-0.8c-0.2-1.1-0.6-2-1.1-2.8l24-32.6c1.7,1.8,4.3,2.7,6.8,2.5l17,33.8h2.4h1.1h1h2.5H58l20.1-21.4l1.8,21.4H83l-1.8-22.1
		l26.4,16.6c-0.4,0.9-0.6,2-0.6,3.1c0,0.8,0.2,1.6,0.3,2.4h7.7h3.1h3.9c0.2-0.7,0.3-1.5,0.3-2.4c0-0.5-0.1-1-0.2-1.5l40.7-10.1
		l-1.1,13.9h3.1l1-13.1l19.4,13.1h5.5l-22.7-15.4l37.2-10.8l1.9,26.1h3.1l-1.8-25.3l35.6,21.6c-0.4,0.9-0.6,2.1-0.6,3.3
		c0,0.2,0,0.2,0,0.4h4.9h3.2h1.5h1.5h4.9h5.9l-5.9-0.8c-0.1-1.5-0.5-2.8-1.2-3.9l23-31.2c1.8,1.5,4.5,2,6.8,1.5l16.1,32.1
		c-0.7,0.6-1.3,1.4-1.8,2.2h2.9h3.5h1.1h4.2h6.5c-0.8-1.5-2-2.5-3.4-3.4l17-18l1.8,21.4h3.1l-1.8-22.1l27.8,17.4
		c-0.2,0.5-0.2,1.2-0.2,1.8c0,1.1,0.2,2,0.6,2.8h5.6h3.1h2.4c0.4-0.8,0.6-1.7,0.6-2.8c0-0.3,0-0.5-0.1-0.8l42-10.1l-1.1,13.9h3.1
		l1-13.1l19.4,13.1h5.5l-22.7-15.4l37.2-10.8l1.9,26.1h3.1l-1.8-25.3l40.9,24.9l-1.2,0.4h3.2h1.5h1.5H521l-9.6-1.2l29-39.4l0.7,1
		l19.1,38.1c-0.5,0.4-0.9,0.9-1.3,1.5h2.1h3.5h1.1h4.2h3.9c-0.5-0.8-1.3-1.5-2.1-2l18.3-19.4l1.8,21.4h3.1l-1.8-22.1l26,16.4
		c-0.1,0.5-0.2,1.2-0.2,1.8c0,1.5,0.3,2.8,0.9,3.9h6.9h3.1h5.1c0.5-1.1,0.9-2.4,0.9-3.9c0-0.2,0-0.2,0-0.3l38.9-9.6l-1.1,13.9h3.1
		l1-13.1l19.4,13.1h5.5l-22.7-15.4l37.2-10.8l1.9,26.1h3.1l-1.8-25.3l33.6,20.4c-1.2,1.2-1.9,2.8-2.2,4.8h8.4h3.2h1.5v-3.5v-2.2
		v-1.5v-80.3v-2.8v-5.1l-17.8-56.4c0.8-0.3,1.5-0.8,2.2-1.3l15.5,12v-3.9L750.9,867c0.3-0.8,0.5-1.7,0.5-2.7c0-0.4,0-0.8-0.1-1.2
		l13.4-1.6v-3.1l-14.5,1.8c-0.7-1-1.6-1.8-2.7-2.2l17.2-28.3v-0.3v-2.6v-19.5l-2.5-32.3c0.8,0.1,1.7,0.1,2.5-0.1v-5.3v-1.3v-1.6
		v-3.5V761v-2v-79.6v-2.8v-5.1l-17.2-55.3c0.9-0.5,1.8-1,2.5-1.8l14.9,11.6v-3.8l-13.4-10.4c0.3-0.8,0.5-1.8,0.5-2.8
		c0-0.5-0.1-0.9-0.1-1.3l13-1.6V603l-14,1.7c-0.7-1.2-1.7-2.1-2.8-2.8l16.9-27.7v-0.3v-2.7v-19.6l-2.5-31.1c0.8,0.2,1.6,0.2,2.5,0.1
		V514v-1.3v-1.6v-3.5v-2.2v-3.3v-78.6v-2.8v-5.1l-18.9-60.3L765,370v-3.8l-18-14l18-2.2v-3.1l-18.9,2.3l18.9-31.1v-0.3v-2.6v-19.4
		l-2.4-29.9c0.8-0.1,1.6-0.3,2.4-0.5v-7.1V257v-1.7H764.5z M721,272.7l39.6,40.9l-45.5-2.2c0-0.1,0-0.2,0-0.2c0-3.8-2.4-6.1-5.2-6.8
		L721,272.7z M465.3,272.7l39.6,40.8l-45-2.2c0-0.2,0-0.5,0-0.7c0-3.9-2.7-6.1-5.7-6.6L465.3,272.7z M255.2,261.8l21.2,34.1l1.3-0.8
		l-1.2,0.9l1.6,2.3h-0.4l-0.8-1.3l-22.6,15.4l-1.3-16.7l-2.6-33.1C252,262.8,253.6,262.6,255.2,261.8z M209.5,272.7l39.6,40.8
		l-45.2-2.2c0-0.1,0-0.2,0-0.3c0-3.8-2.6-6.1-5.5-6.6L209.5,272.7z M101.5,336.1l-44.2-27.2l23-16.7c1.2,1.2,2.9,2,4.7,2.2
		L101.5,336.1z M53.2,306.7l-24-10.1c-0.1-2.2-1.1-3.7-2.4-4.6l23.6-24.7c0.9,0.5,2,0.8,3.1,0.8L53.2,306.7z M48.1,265.4L23.6,291
		c-0.8-0.1-1.7,0-2.5,0.3l-19-30.6c0.4-0.9,0.7-1.9,0.8-3.1l44.4,5.5C47.5,264,47.8,264.7,48.1,265.4z M23,302.8
		c0.7,0,1.5-0.1,2.1-0.3l30.1,41.9c-2.2,1.2-3.7,3.5-3.7,6.7c0,0.1,0,0.2,0,0.3L26.8,348c0.1-0.4,0.1-0.8,0.1-1.3
		c0-4-2.8-6.2-5.8-6.6L23,302.8z M63.2,358.2c2.5-1.2,4.5-3.5,4.5-7.1c0-0.4,0-0.7-0.1-1.1l34.6-8.1l-17.4,40.4
		c-0.8-0.1-1.7,0-2.5,0.2L63.2,358.2z M86.6,393.8c1.3-0.5,2.4-1.4,3.1-2.7l36.6,12.1l-22,28c-1.4-0.6-2.9-0.8-4.4-0.7L86.6,393.8z
		 M25,475.7c2,1.6,4.8,2.2,7.4,1.8l16.4,32.7c-1.9,1.1-3.4,2.9-3.8,5.5l-35.6-4.5l-3.6-0.5c-0.2-2.4-1.1-4.3-2.4-5.7L25,475.7z
		 M27.1,547.7L49,524.8c1.4,0.8,2.9,1.2,4.5,1.2l-0.3,36.6L30,552.9C29.9,550.5,28.7,548.7,27.1,547.7z M23,560.5
		c1.1,0,2.2-0.2,3.1-0.7l29.5,41.1c-2.6,0.9-4.8,3.1-5.1,6.4l-25.3-3.5c0.1-0.5,0.2-1,0.2-1.5c0-3.1-1.9-5.1-4.3-5.7L23,560.5z
		 M60.2,616.5c0.3-0.1,0.6-0.1,0.9-0.2l18.2,23.6c-1.1,1.1-1.7,2.6-1.7,4.6c0,1.2,0.2,2.2,0.7,3.1l-24.9,26.5L60.2,616.5z M87,650.8
		c1.7-0.5,3.1-1.7,3.8-3.4l35.4,11.7l-22.4,28.4c-1.2-0.5-2.5-0.7-3.8-0.6L87,650.8z M26.2,730c1.4,1.5,3.5,2.1,5.5,1.9l17.6,35.2
		l0.2,0.2c-1.2,1-1.9,2.5-1.9,4.5l-38.2-4.7l-5.5-0.7c-0.2-1.6-0.7-3-1.5-4.1L26.2,730z M56.6,777.9c0.5-0.2,1.1-0.5,1.5-0.8
		L78,795.8c-0.5,1.2-0.7,2.5-0.7,3.9c0,0.9,0.1,1.8,0.3,2.5l-21.4,15.5L56.6,777.9z M56.6,823.7l44.2,27.3l-35.6,8.2
		c-1.1-1.7-2.8-2.8-4.7-3.2L56.6,823.7z M60.3,871.7c0.2,0,0.3-0.1,0.4-0.1L79.6,896c-0.9,1-1.5,2.5-1.5,4.2c0,1.1,0.2,2,0.6,2.8
		l-25.3,27L60.3,871.7z M86.9,906.2c1.5-0.5,2.8-1.5,3.6-3.1l35.9,11.8l-23.7,30.2c-0.5-0.2-1.2-0.4-1.8-0.5L86.9,906.2z
		 M35.6,975.5l15.8-37.2l25.3,57.3L39,983.7c0.2-0.5,0.2-1.2,0.2-1.8C39.2,978.7,37.6,976.6,35.6,975.5z M254.4,1015.4v-77.9
		l26.4,39.2c-1.2,1.2-2.1,2.8-2.1,5.1c0,1,0.2,1.9,0.5,2.8l-23.3,31.6C255.6,1015.9,255,1015.6,254.4,1015.4z M717,990.7l-33.3-45.3
		l39-18.9L717,990.7z M725.4,930.7l14.1,36.4l-19.4,23.1L725.4,930.7z M737.2,867.3l-35.7,14.5c-0.9-2.2-2.8-3.7-4.9-4.4l10.9-45
		c2.6,0.5,5.5,0.1,7.7-1.5l23.2,28.9c-1,1.2-1.6,2.7-1.6,4.7C736.6,865.6,736.9,866.6,737.2,867.3z M707.1,815.3
		c-1.9,0.5-3.7,1.5-4.9,3.1l-26.6-20.6l42.5-13.7L707.1,815.3z M759.7,759.7c-0.8,0.3-1.7,0.8-2.4,1.3l-36.8-22.4l20.3-24.2
		L759.7,759.7z M735.3,612.3l-36.6,14.8c-0.6-1.3-1.7-2.3-2.9-2.8l11.8-48.7c2.2,0.1,4.3-0.7,5.8-2.3l23.8,29.6
		c-1.5,1.4-2.5,3.4-2.5,6.1C734.7,610.2,734.9,611.3,735.3,612.3z M706.2,561.6c-1.2,0.2-2.3,0.8-3.2,1.5l-27.5-21.3l42.5-13.7
		L706.2,561.6z M693.4,365.5c-2.5-0.1-4.9,0.8-6.5,2.8l-24-16.7c0.3-0.7,0.5-1.5,0.5-2.4c0-0.6-0.1-1.2-0.2-1.8l39.8-31
		c0.6,0.5,1.4,0.9,2.2,1.2L693.4,365.5z M597.9,297.4l15.3,38.7L569,308.8l20.3-14.7C591.5,296.5,594.7,297.6,597.9,297.4z
		 M612.4,339.2l-34.4,8c-1.3-2-3.6-3.1-5.9-3.1l-3.8-32.1L612.4,339.2z M508.6,318.2l0.1-0.2l19.2,26.6l-19.3,2.4l-15.3,1.8
		c-1.9-2-5.1-2.5-7.8-1.6l-26.3-32.8l46.8,2.2l1.8,0.1l0.8,1.2L508.6,318.2L508.6,318.2z M341.9,296.8l15.5,39.4l-44.2-27.3
		l21.5-15.6C336.3,295.8,339.1,296.9,341.9,296.8z M56.6,312l44.2,27.3l-34.1,7.9c-1.3-2.3-3.8-3.5-6.3-3.8L56.6,312z M87.6,383.4
		l17-39.5l21.6,56.1l-35.9-11.8C90.2,385.9,89.2,384.3,87.6,383.4z M127.5,406.5l4.4,56.5l-25.2-20.4c1-1.2,1.7-2.8,1.7-4.8
		c0-2.1-0.7-3.7-1.7-4.9L127.5,406.5z M37.5,474.5l39.2,12.4l-20.8,22.2c-1.4-0.3-2.8-0.3-4.1-0.1l-16.4-32.6
		C36.1,475.9,36.9,475.3,37.5,474.5z M83,511.2l-1.8-22.1l26.4,16.6c-0.6,1.2-1,2.5-1,4.2c0,1.3,0.2,2.5,0.7,3.5L85.9,539
		c-0.2-0.1-0.5-0.1-0.6-0.1L83,511.2z M60.4,523.2l19,17.9c-0.8,1-1.3,2.3-1.3,4c0,0.3,0,0.6,0.1,0.9l-21.8,15.8l0.3-36.3
		C58,525.1,59.3,524.3,60.4,523.2z M56.6,567.9l44.2,27.3l-35.3,8.2c-1.2-1.5-3.1-2.5-5-2.8L56.6,567.9z M67.3,608.5
		c0-0.8-0.2-1.7-0.3-2.4l35.2-8.2L85,637.8c-1-0.1-2,0.1-3,0.4L64,615C65.9,613.8,67.3,611.6,67.3,608.5z M127.5,662.3l4.4,56.5
		L106,698c1-1.1,1.5-2.5,1.5-4.5c0-1.8-0.5-3.1-1.4-4.2L127.5,662.3z M35.9,730l40.7,12.8l-21.5,23c-1-0.2-2-0.1-2.9,0.2l-17.6-34.9
		C35.1,730.7,35.6,730.4,35.9,730z M89.8,809.6c1.3-0.2,2.5-0.7,3.6-1.3l29.3,9.9l-17.7,30L89.8,809.6z M66.3,862.1l35.9-8.4
		l-17.3,40.2c-0.9,0-1.8,0.1-2.7,0.4l-18.7-24.1c1.8-1.4,3-3.5,3-6.4C66.4,863.2,66.4,862.6,66.3,862.1z M130.5,917.4l36.8,27.5
		l-29,26.8c-1.1-0.8-2.4-1.2-3.8-1.3L130.5,917.4z M131.5,914.3l47.3-28.1l0.8,0.6l-11,55.3L131.5,914.3z M283.5,975.2l-27.6-41.1
		l49.1,1.8l-16.7,39.2C286.6,974.7,285,974.7,283.5,975.2z M617.8,945.4l21.4-27.3l4.4,56.5l-25-20c0.8-1.1,1.2-2.5,1.2-4.1
		C619.8,948.4,619,946.7,617.8,945.4z M693.5,877c-2.5,0.1-5,1.1-6.5,3l-26.7-18.7l41.6-32.4c0.7,1,1.6,1.8,2.7,2.5L693.5,877z
		 M680.3,686.3l-37.2-27.8l43.7-26c0.7,1.6,2,2.7,3.5,3.2L680.3,686.3z M704.7,574.9l-11.8,48.7c-1.7,0-3.3,0.5-4.6,1.6l-28.2-19.7
		l41.9-32.6C702.8,573.8,703.7,574.5,704.7,574.9z M680.3,430.4l-37.2-27.8l42.9-25.5c0.9,1.7,2.4,2.9,4.1,3.5l-1.2,6.2
		c-2.8,0.3-5.5,2.2-5.5,5.9c0,2.7,1.4,4.4,3.2,5.3l-1.6,8.1c-2.2,0.1-4.5,1.5-4.5,4.5c0,2.2,1.2,3.5,2.7,4.1L680.3,430.4z
		 M685.2,374l-42.1,25l14.4-43.9c1.2-0.1,2.5-0.4,3.5-1.2l24.5,17c-0.2,0.7-0.3,1.5-0.3,2.3C685.2,373.6,685.2,373.8,685.2,374z
		 M456.9,316.4l26.2,32.6c-1.1,1.1-1.7,2.6-1.7,4.6c0,0.8,0.1,1.4,0.3,2l-40.8,16.5l-1.2-1.8l12.8-53
		C454,317.5,455.6,317.2,456.9,316.4z M201.2,316.5l26.3,32.7c-0.8,1.1-1.5,2.5-1.5,4.3c0,0.7,0.1,1.3,0.2,1.8l-37.3,15.3
		c-0.9-1.8-2.5-2.8-4.3-3.3l12-49.5C198.2,317.9,199.9,317.5,201.2,316.5z M134.1,468.9l27.2,25.6l-39.2,9.8c-1-1.2-2.3-1.9-3.7-2.4
		L134.1,468.9z M116.1,518.4l6.8,40.7L90.3,548c0.4-0.8,0.7-1.8,0.7-2.9c0-2.2-0.9-3.8-2.2-4.8l20.3-24.2
		C110.9,517.8,113.5,518.6,116.1,518.4z M182.7,632.3l1.3-0.5l26.5,35.9l-38.7,18.7L182.7,632.3L182.7,632.3z M491.6,873.1
		c1.2-0.4,2.3-1.1,3.1-2.1l13.9,10.8l26.8,20.8l0,0l-26.2,26.9l-0.7-2.2L491.6,873.1z M598.3,906c1.3-0.6,2.5-1.6,3.1-3l36.4,12
		L615,944c-1-0.3-2.1-0.5-3.1-0.4L598.3,906z M686.3,629.2l-43.2,25.7l15.3-46.9l28.3,19.7C686.5,628.2,686.4,628.8,686.3,629.2z
		 M589.7,391.9l-24.8,26.4l7-58.8l19.7,25.4c-1.3,1-2.2,2.5-2.2,4.7C589.3,390.4,589.5,391.2,589.7,391.9z M506.3,418.8l-29.6-6.4
		c0-0.1,0-0.2,0-0.3c0-3.6-2-5.8-4.6-6.8l13.5-45.5c0.7,0.2,1.5,0.3,2.2,0.4L506.3,418.8z M313,359.9l-7,59l-22.7-27.4l26.6-32.9
		C310.8,359.2,311.8,359.7,313,359.9z M189.6,373.6l37.8-15.4l-15.1,50.7l-23.5-31.8C189.3,376.2,189.6,375,189.6,373.6L189.6,373.6
		z M230.1,359.7c0.7,0.2,1.4,0.5,2.2,0.5l18.4,58.7l-35.9-7.8L230.1,359.7z M122.1,515.6l35.7,25.5L126,559l-7-41.3
		C120.2,517.2,121.2,516.6,122.1,515.6z M170.9,693.1l33.1,45l-37.9,11l1.3-15.3c4.1-0.4,7.8-3.2,7.8-8.5c0-4.6-2.9-7.4-6.5-8.2
		L170.9,693.1z M123.2,763l39.5-9.8l-1.1,13.9l-2.2,27.3l-36.8-26.3c0.5-1.1,0.8-2.2,0.8-3.7C123.4,764,123.3,763.4,123.2,763z
		 M235.4,871.8c1-0.3,1.9-0.8,2.6-1.5l14.8,11.5l26.8,20.8l0,0l-26.2,26.9l-0.7-2.2L235.4,871.8z M593.6,894.2l-18.7-24.3
		c1.8-1.3,2.9-3.4,2.9-6.1c0-0.6-0.1-1.2-0.2-1.7l36.1-8.4L596.4,894C595.5,893.9,594.5,893.9,593.6,894.2z M567,856.4
		c-2.8,0.8-5,3.1-5.3,6.5l-23.7-3.3c0.2-0.5,0.2-1.2,0.2-1.8c0-3.9-2.5-6.2-5.5-6.8l1.9-36.3c0.8,0,1.5-0.1,2.2-0.3L567,856.4z
		 M568.6,853.4l-29.1-40.6c0.9-1,1.5-2.3,1.5-4.1c0-2.4-1.1-4-2.6-5l21.9-22.9c1.5,0.8,3.1,1.3,4.8,1.5l-0.3,34.1
		c-1.4,0.9-2.4,2.5-2.4,4.6c0,2.5,1.3,4.1,3,4.9L568.6,853.4z M593.7,793.6c-0.5,0.2-0.8,0.4-1.2,0.6l-17.8-16.7
		c0.7-1.3,1.1-2.8,1.1-4.7c0-3.7-1.7-6.4-4-7.9l18-19.2l1.8,21.4L593.7,793.6z M608.3,686.6c-1.8,0.8-3.3,2.2-4.1,4.3l-38.6-13.1
		l26.8-28.5c0.8,0.5,1.8,0.8,2.8,1L608.3,686.6z M566.9,600.5c-2.6,1-4.7,3.2-4.8,6.8l-24.8-3.5c0.2-0.5,0.2-1.1,0.2-1.6
		c0-3.4-2.2-5.4-4.8-5.8l2.2-40.6L566.9,600.5z M627.6,497.2c-3.6,0-6.9,1.8-8.9,4.5l-24.2-15.1l47.8-17.4l-13.4,28.1
		C628.4,497.2,628,497.2,627.6,497.2z M608,443.4l-17,39.1l-25.3-57.2l39.5,13.4C605.3,440.9,606.5,442.5,608,443.4z M438.5,376.3
		l1.3-0.5l23.3,31.6c-1,1.2-1.6,2.8-1.6,4.8c0,0.6,0.1,1.2,0.2,1.8l-34.1,16.5l2.8-13.9c3.1,0,6.2-2,6.2-5.9c0-3-1.8-4.8-3.9-5.6
		l1-5.1c2.7-0.1,5.3-1.8,5.3-5.2c0-2.5-1.5-4.1-3.3-4.8L438.5,376.3L438.5,376.3z M239.7,867.6c0.2-0.5,0.2-1.2,0.2-1.8
		c0-0.8-0.2-1.6-0.4-2.3l13.4-1.6l16.5-2c0.6,2.6,2.8,4.1,5.1,4.4l4.7,34.2L253,878.1L239.7,867.6z M362.9,850.6l-0.7,1.2l-0.2-0.7
		l-1.5,0.5l1.5-0.5l-1.2-2.9l-15.7-39.7c0.5-0.3,1.1-0.7,1.5-1.1l25.9,8.8c0,0.2,0,0.4,0,0.6c0,6.1,5.4,8.8,10.1,8.1l16.4,34.5
		L362.9,850.6z M491.3,858.4l17.3-28.5l0.1-0.2l16.7,23.3c-0.9,1-1.5,2.2-1.8,3.8l-15.1,1.8l-14,1.7
		C493.7,859.5,492.6,858.8,491.3,858.4z M529.6,850.9c-0.5,0.1-1.1,0.2-1.5,0.4l-17.3-24l20.3-13.9c0.2,0.2,0.4,0.3,0.6,0.4
		L529.6,850.9z M568.1,782.2c1.7-0.4,3.3-1.2,4.6-2.3l17.5,16.5c-0.6,1-0.9,2.2-0.9,3.7c0,0.7,0.1,1.3,0.2,1.8l-19.2,14
		c-0.8-0.3-1.6-0.4-2.5-0.4L568.1,782.2z M561.8,674.7l-22.7-27.5l26.6-33c0.9,0.5,2,0.9,3.1,1.1L561.8,674.7z M529.5,596.5
		c-0.2,0.1-0.5,0.2-0.7,0.2l-18.1-25.1l20.9-14.3L529.5,596.5z M532.5,553l-22.6,15.4l-1.3-16.7l-2.4-30.2c2.2,0.1,4.3-0.4,6.1-1.4
		l19.7,31.8l1.3-0.8l-1.2,0.9l1.6,2.3h-0.4L532.5,553z M589.3,546.3l-21.4,15.5l0.3-38c1.1-0.2,2.1-0.7,3-1.3l18.9,17.8
		c-0.6,1.1-1,2.5-1,4.1C589,545,589.1,545.7,589.3,546.3z M209.5,528.7l39.6,40.8l-44.2-2.1c-0.5-3.9-3.5-6.1-6.8-6.6L209.5,528.7z
		 M277.8,609.9c1.8-0.3,3.5-1.3,4.5-3l25.9,3.5c0.2,0.2,0.2,0.5,0.4,0.7l-26.1,32.4L277.8,609.9z M349.6,669.6l-6.3-17.4
		c1.8-0.9,3.1-2.5,3.6-4.7l35.1,11.6l-21.5,27.3c-1.6-0.5-3.3-0.7-5-0.4l-1.8-5.1c2.1-0.8,3.8-2.6,3.8-5.5
		C357.5,670.7,353.2,668.7,349.6,669.6z M260.2,769.6l43.4,5.5c0.2,0.7,0.5,1.3,0.8,1.8L278,804.5L258.4,773
		C259.2,772,259.8,770.9,260.2,769.6z M273.3,852.7l-18.2-25.3l20.9-14.2l-2.2,39.5C273.6,852.5,273.5,852.6,273.3,852.7z
		 M279.1,811.6L311,856c-2.3,1.2-4.1,3.6-4.1,7.1v0.1l-25.6-3.5c0.1-0.4,0.2-0.8,0.2-1.3c0-3.3-2.2-5.2-4.6-5.8L279.1,811.6z
		 M282.1,810.4l27.1,11.4l3.8,31.6L282.1,810.4z M389.1,814.4l25.2-14.1l-13,56.7l-15.7-33.1c2.2-1.3,3.9-3.6,3.9-7
		C389.4,815.9,389.2,815.1,389.1,814.4z M464.1,823.4c-0.2-5.1-4-9.4-8.8-10.4l10-28.4l39.6,40.8L464.1,823.4z M509.9,824.3
		l-1.3-16.7l-2.5-31.2c2,0.4,4.1,0.2,6-0.7l18.1,29.1c-0.9,1-1.5,2.3-1.5,4c0,0.8,0.2,1.6,0.4,2.3L509.9,824.3z M512.2,759.6
		c-1.7-0.8-3.5-1-5.4-0.8l-17.6-42.1l43.9,8.2c0,1.8,0.5,3.3,1.2,4.5L512.2,759.6z M534.8,642.4l-26.2-20.2l-13.7-10.6
		c0.3-0.8,0.5-1.8,0.5-3c0-0.3,0-0.6-0.1-0.9l13.2-1.6l16.8-2.1c0.6,2.3,2.5,3.7,4.7,4.1L534.8,642.4z M525.3,600.9l-16.7,2.1
		l-14.1,1.7c-0.7-1.2-1.6-2.2-2.8-2.8l16.8-27.7l0.1-0.2l17.7,24.5C525.9,599.1,525.5,600,525.3,600.9z M533.6,548.6l-18.9-30.4
		c1.1-1.2,1.8-2.6,2.2-4.4l41.6,5.2c0.3,0.8,0.7,1.5,1.2,2.2L533.6,548.6z M426.7,437.3l31.1,42.2c-0.6,0.9-1.1,2.1-1.1,3.5
		c0,0.1,0,0.1,0,0.2l-34.8,10l1.5-17.1c4.1,0.2,8.3-2.5,8.3-7.8c0-4.8-3.4-7.3-7-7.8L426.7,437.3z M291.9,474.2l40.5,12.7l-19.7,21
		c-1.8-0.4-3.8-0.3-5.6,0.3l-16.4-32.6C291.2,475.2,291.6,474.8,291.9,474.2z M312.8,570.5c0.9-0.1,1.8-0.3,2.7-0.8l41.2,25.4
		l-34.2,7.9c-1.3-2.4-3.7-3.7-6.3-3.9L312.8,570.5z M318.9,613.9c2.5-1.2,4.4-3.5,4.4-7.1c0-0.3,0-0.6-0.1-0.9l34.6-8.1l-17.4,40.5
		c-0.8-0.1-1.8-0.1-2.6,0.1L318.9,613.9z M347,644.2c-0.4-2.4-1.8-4.1-3.5-5l17-39.5l21.6,56.1L347,644.2z M291.6,730l40.9,12.8
		l-22.6,24c-0.5,0-0.9,0-1.4,0.1l-18-35.9C290.9,730.8,291.3,730.4,291.6,730z M313.2,767.7l0.6-0.7l20.1-21.4l1.8,21.4l2.2,27.3
		c-0.2,0.1-0.5,0.2-0.8,0.3l-21.1-20c0.2-0.5,0.2-1.1,0.2-1.6C316.2,770.6,315,768.7,313.2,767.7z M312.4,779
		c0.8-0.3,1.5-0.8,2.2-1.4l20.2,19c-1.1,1.2-1.8,2.9-1.8,5.1c0,0.3,0,0.6,0.1,0.8l-20.9,15.2L312.4,779z M389.9,724.8l27.2,25.6
		l-36.8,9.1c-1.5-1.5-3.6-2.4-5.8-2.6L389.9,724.8z M461,741l1.9,26.1l0.8,11.7l-17.3-11.7l-22.7-15.4L461,741z M391.7,722.3
		l31.9-29.6l-4.6,55.1L391.7,722.3z M426.7,693.1l33.1,45l-37.9,11L426.7,693.1z M484.9,714.4l-0.3,1.5l1,0.2l18.2,43.5
		c-0.8,0.4-1.6,0.8-2.2,1.5l-37-22.5L484.9,714.4z M498.8,768.8l-32,10.9l-0.9-12.7l-1.8-25.3l35.6,21.7c-0.6,1.2-0.9,2.5-0.9,4.1
		C498.7,768,498.8,768.4,498.8,768.8z M502.9,775.3l3.8,47.7l-39.1-40.3l32-10.9C500.4,773.3,501.6,774.5,502.9,775.3z M418.4,794.9
		l2.2-27.9l1-13.1L441,767l20.7,14L418.4,794.9z M415.3,794.5l-33.4-23.9c0.7-1.3,1.1-2.8,1.1-4.5c0-1.5-0.3-2.8-0.8-3.8l36.3-9
		l-1.1,13.9L415.3,794.5z M364.1,768.1L342.4,794c-0.5-0.1-0.9-0.1-1.5-0.1l-2.2-26.8l-1.8-22.1l27.6,17.3c-0.5,1.1-0.7,2.3-0.7,3.8
		C363.9,766.8,364,767.4,364.1,768.1z M338.7,742.5l47.8-17.4l-15.3,32c-1.9,0.4-3.7,1.3-5,2.7L338.7,742.5z M338.1,739.4l16.1-37
		c2.5,0.8,5.3,0.6,7.6-0.6l24.7,20L338.1,739.4z M363.3,687.9l20.2-25.6l4.4,56.5l-23.6-19c1.2-1.4,1.8-3.2,1.8-5.5
		C366.1,691.5,365,689.3,363.3,687.9z M386.3,661.5l36.8,27.5l-32.3,30L386.3,661.5z M387.3,658.5l45.5-27c0.3,1.3,1.1,2.4,2,3.1
		l-10.3,51.8L387.3,658.5z M479.1,600l2.4,3c-1.3,1.3-2.2,3.1-2.2,5.5c0,1.4,0.3,2.5,0.8,3.5L444,626.7c-0.8-1.4-2.3-2.3-3.9-2.6
		l12.1-49.8c1.8,0.2,3.8-0.2,5.2-1.4l15.1,18.8c-0.5,0.8-0.8,1.8-0.8,2.9C471.8,599,475.9,600.9,479.1,600z M450.5,561.5
		c-1.2,0.4-2.2,1.1-2.9,2l-27.8-21.6l42.5-13.7L450.5,561.5z M462.9,511.2l0.8,11.7l-17.3-11.7l-22.7-15.4l33.7-9.8
		c0.8,1.4,2.2,2.2,3.7,2.6L462.9,511.2z M315.8,509.2l18.2-19.4l1.8,21.4l2.3,27.9c-0.2,0.1-0.2,0.2-0.4,0.2l-19.1-18
		c0.8-1.2,1.2-2.8,1.2-4.6C319.7,513.1,318.1,510.6,315.8,509.2z M335.6,548.5c1.3,1.8,3.5,2.6,5.6,2.5l16.1,41l-39.7-24.5
		c0.5-0.9,0.9-2.1,0.9-3.4c0-1.1-0.2-2-0.6-2.8L335.6,548.5z M387.3,654.8l15.3-46.9l29.3,20.4L387.3,654.8z M384.5,653.7L363,597.9
		l36.9,8.8L384.5,653.7z M362.9,594.7l17.7-30.1l18.4,38.7L362.9,594.7z M376.7,514.7l37.1,26.4L382,559l-7.3-43.3
		C375.3,515.5,376,515.1,376.7,514.7z M414.2,544.4l-13,56.7l-18.5-39L414.2,544.4z M360.8,592.3l-16.4-41.5l34.1,11.5L360.8,592.3z
		 M345.1,539.7l21.4-25.6c1.4,1.2,3.2,1.9,5.1,2l7.2,43l-32.3-10.9c0.6-0.9,0.9-2.1,0.9-3.5C347.5,542.4,346.5,540.7,345.1,539.7z
		 M337,489.1l27.6,17.3c-0.2,0.7-0.3,1.5-0.3,2.3c0,1,0.2,1.9,0.5,2.8l-22.6,27c-0.4-0.1-0.7-0.1-1.1-0.1l-2.2-27.3L337,489.1z
		 M379.4,507l39.2-9.8l-1,12.9c-3.4,0.7-6.3,3.2-6.3,7.6c0,3.9,2.3,6.4,5.1,7.3l-1.1,13.4l-36.7-26.2c0.5-1,0.8-2.2,0.8-3.7
		C379.6,508.1,379.5,507.6,379.4,507z M461.6,525.2l-43.2,13.9l1.1-13.4c4-0.1,8-2.6,8-7.8c0-4.6-3.2-7.2-6.8-7.7l0.9-12.1
		l19.4,13.1L461.6,525.2z M446.2,569.2l-42,32.6l13.2-57.8l28.8,22.3c-0.1,0.5-0.2,0.9-0.2,1.5S446.1,568.7,446.2,569.2z
		 M449.3,573.5L437,624.2c-1.2,0.3-2.3,1-3.1,1.9l-29.5-20.6l43.2-33.6C448.1,572.6,448.6,573.1,449.3,573.5z M482.7,615.1
		l-14.8,49.7l-23.8-32.1c0.4-0.8,0.6-1.7,0.6-2.8c0-0.1,0-0.2,0-0.2l37.2-15.1C482.3,614.7,482.5,614.9,482.7,615.1z M312.8,597.6
		l-30.9-43l23.6,9.9c0.2,2.9,1.8,4.8,4,5.5L312.8,597.6z M280.3,550.5l25.2-26.3c3.4,2,8.1,1.8,11.1-0.6l18.9,17.8
		c-0.5,0.9-0.9,2.1-0.9,3.4c0,0.3,0,0.5,0.1,0.8L316.2,559c-3.1-2.2-8.2-1.3-9.9,2.4L280.3,550.5z M338.7,486.5l47.8-17.4
		l-15.4,32.2c-1.9,0.2-3.8,1-5.1,2.4L338.7,486.5z M389.9,468.9l27.2,25.6l-39.1,9.7c-0.9-1.2-2.3-2.1-3.8-2.5L389.9,468.9z
		 M484.9,458.5l18.2,43.5c-1.3,0.4-2.5,1.1-3.5,1.9l-31-18.8c0.2-0.6,0.4-1.4,0.4-2.2c0-1.6-0.5-2.9-1.3-3.8L484.9,458.5z
		 M497.6,506.3c-0.8,1.4-1.2,3.1-1.2,5.1c0,0.8,0.1,1.5,0.2,2.2l-29.7,10.1L466,511l-1.6-22.4c0.9-0.2,1.8-0.5,2.5-1.2L497.6,506.3z
		 M503.1,520.9l3.6,46.2l-39.1-40.3l30-10.2C498.9,518.7,500.9,520.2,503.1,520.9z M504.8,569.5l-45-2.2c-0.2-3.8-3-5.9-6-6.2
		l11.4-32.4L504.8,569.5z M459.4,570.4l46.6,2.2l-17.1,28.2c-1.6-0.2-3.2-0.1-4.7,0.5l-2.3-2.8c0.8-0.9,1.5-2.2,1.5-3.8
		c0-4.9-5.1-6.6-8.5-5L459.4,570.4C459.4,570.5,459.4,570.4,459.4,570.4z M535.4,646.8L535.4,646.8l-26.2,26.9l-0.7-2.2l-17.6-56
		c0.8-0.4,1.5-0.8,2.2-1.5l15.4,12L535.4,646.8z M506.3,674.7l-35.9-7.8l15.2-50.8c0.8,0.2,1.5,0.2,2.4,0.2L506.3,674.7z
		 M466.3,667.4l-38.7,18.7l10.1-50.5c1.5,0.2,3.1-0.1,4.5-0.8L466.3,667.4z M466.9,670.6l-5.7,64.2l-33.3-45.3L466.9,670.6z
		 M469.6,674.7l14.1,36.4l-19.4,23.1L469.6,674.7z M507.1,681.7l1.5-2.3l0.1-0.1l1.5,2.2l25.3,37.6c-0.8,0.8-1.3,1.7-1.8,2.8
		l-45.8-8.5l-0.7-1.8L507.1,681.7z M444.4,816.9l-24.7-19.1l42.5-13.7l-10.1,28.6C449.1,813.1,446.3,814.6,444.4,816.9z
		 M387.7,811.6c-1.6-2.1-4.3-3.1-6.9-3l-5.6-33.4c1.8-0.3,3.5-1,4.8-2.2l33.6,24L387.7,811.6z M373.3,813.1l-24.7-8.4
		c0.4-0.9,0.5-1.9,0.5-3.1c0-3.1-1.5-5.4-3.5-6.6l19.9-23.8c1.5,2.3,4.1,3.6,6.8,3.9L378,809C375.9,809.8,374.2,811.1,373.3,813.1z
		 M342.2,809.4l15.2,38.5l-44.2-27.3l20.7-15C335.6,808.6,339,809.8,342.2,809.4z M280.3,806.4l26.3-27.6c0.8,0.4,1.8,0.6,2.7,0.7
		l-0.3,39L280.3,806.4z M281.4,731c1.7,1.6,4.2,2.1,6.5,1.5l17.4,34.6l0.5,1c-1.2,0.8-2,2.1-2.3,3.8l-38.2-4.8l-4.9-0.6
		c-0.2-1.8-0.8-3.4-1.8-4.6L281.4,731z M290.4,721.7l16.7-39.3l25.3,57.3l-40-12.6c0-0.2,0-0.4,0-0.5
		C292.5,724.3,291.6,722.7,290.4,721.7z M309.9,681l38.6,13.1c0,0.1,0,0.2,0,0.2c0,3,1.2,5.2,3,6.6l-16.2,37.2L309.9,681z
		 M309.1,674l7-58.8l18.7,24.3c-1.8,1.2-3.1,3.2-3.1,6.1c0,1.4,0.3,2.5,0.8,3.5L309.1,674z M306,674.7l-22.7-27.4l27.3-33.9
		c0.8,0.5,1.6,0.8,2.5,1.1L306,674.7z M276.8,597.5l2.2-41.7l31.9,44.5c-2.2,1.2-3.8,3.5-3.8,6.7c0,0.2,0,0.3,0,0.5l-24.3-3.4
		c0-0.1,0-0.2,0-0.2C283.1,599.7,280,597.6,276.8,597.5z M273.8,597.5l-18.7-26l20.9-14.3L273.8,597.5z M254.3,568.4l-1.3-16.7
		l-2.5-32.5c1.8,0.5,3.8,0.5,5.7,0l20.3,32.7l1.3-0.8l-1.2,0.9l1.6,2.3h-0.4l-0.8-1.2L254.3,568.4z M261.9,513.9l39.8,5
		c0.3,1.3,0.8,2.4,1.5,3.3l-25.3,26.4l-19-30.7C260.2,516.9,261.2,515.6,261.9,513.9z M259.9,504.3l21.2-28.9c1.8,1.7,4.6,2.2,7,1.6
		l16.4,32.6c-1.7,1.3-2.8,3.3-3.1,6l-36.2-4.5l-2.9-0.4c0-0.1,0-0.1,0-0.2C262.4,507.9,261.4,505.8,259.9,504.3z M290.6,465.6
		l16.6-39.1l25.3,57.3l-39.6-12.4c0-0.2,0-0.4,0-0.5C292.9,468.3,291.9,466.6,290.6,465.6z M309.9,425.3l38.5,13.1
		c0,3,1.4,5.1,3.2,6.4l-16.4,37.8L309.9,425.3z M383.3,406.5l4.4,56.5L363,443c0.9-1.2,1.5-2.8,1.5-4.8c0-2.2-0.8-4-1.9-5.3
		L383.3,406.5z M386.4,465.9L338,483.6l16.4-37.7c2.1,0.5,4.3,0.2,6.1-0.8L386.4,465.9z M423.6,436.9l-2,23.9c-3.2,0.8-6,3.2-6,7.5
		c0,3.8,2.1,6.1,4.8,7.1l-1.4,16.5l-27.3-25.4L423.6,436.9z M428.3,434.3l53.9,22.7l-17,20.4c-1.6-0.5-3.4-0.5-4.9,0.2L428.3,434.3z
		 M487.1,455.7l20-29.9v75.6c-0.3,0-0.6,0-0.8,0L487.1,455.7z M510.2,425.8l27,40.2c-0.5,0.8-0.8,1.9-0.8,3.2c0,0.6,0.1,1.2,0.2,1.6
		l-23.8,32.3c-0.8-0.5-1.6-0.8-2.5-1.2L510.2,425.8L510.2,425.8z M542.7,475l17.8,35.4c-1.4,1.2-2.3,3-2.4,5.4l-37.2-4.7l-3.8-0.5
		c-0.2-2.3-0.9-4.1-2.1-5.6l23.2-31.6C539.4,474.6,541.1,475.1,542.7,475z M564.8,562.6L536,550.5l26.2-27.4
		c0.9,0.5,1.9,0.8,2.9,0.8L564.8,562.6z M535.5,606.6l27,3.7c0.2,0.7,0.5,1.3,0.9,1.8l-25.3,31.4l-4.9-35.8
		C534,607.6,534.8,607.3,535.5,606.6z M559.5,676.8l-47.4-1.7l24.8-25.6L559.5,676.8z M506.1,677.7l-20.4,30.4l-14.7-38L506.1,677.7
		z M511.5,678.2l49.1,1.8l-15.8,37.2c-2.2-0.8-4.7-0.7-6.8,0.2L511.5,678.2z M543.7,732.8l16.1,32.1c-2.1,1.4-3.6,3.5-3.9,6.6
		l-34.9-4.4l-3.8-0.5c-0.2-2.2-1.1-4-2.4-5.2l21.9-29.8C538.7,732.9,541.3,733.3,543.7,732.8z M535.1,802.9c-0.8,0-1.5,0.1-2.2,0.3
		l-18.2-29.3c1.1-1.1,1.9-2.5,2.3-4.3l39,4.8c0.3,1.8,1,3.3,2,4.5L535.1,802.9z M485.3,858.6l-23-28.7c0.7-1.1,1.2-2.2,1.5-3.5
		l42.2,2L488,858C487,858,486.1,858.3,485.3,858.6z M442.6,827.8l-38.4,29.9l13.2-57.8l25.3,19.7c-0.6,1.4-0.9,2.8-0.9,4.4
		C441.8,825.3,442.1,826.6,442.6,827.8z M322.7,858.8c-1.4-2.4-3.9-3.7-6.5-3.9l-3.7-31.2l44.2,27.3L322.7,858.8z M282.4,899.4
		l-4.8-35.6c0.8-0.3,1.7-0.8,2.3-1.4l27.7,3.8c0.2,0.5,0.4,0.8,0.6,1.2L282.4,899.4z M230.7,860l-27.2-33.8l46.8,2.2l1.8,0.1
		l0.8,1.2v0.3l0.1-0.2l17.7,24.5c-0.6,0.6-1.1,1.5-1.3,2.5l-16.5,2l-15.6,1.9C235.4,859.3,232.8,859.1,230.7,860z M251.1,775.8
		c1.6,0.1,3.3-0.2,4.8-1l20.5,32.9l1.3-0.8l-1.2,0.9l1.6,2.3h-0.4l-0.8-1.2l-22.6,15.4l-1.3,0.9v1.8L251.1,775.8z M249.6,821.5
		l-37.7-38.8l32-10.9c1,1.6,2.5,2.7,4.1,3.4L249.6,821.5z M211.1,779.7l-0.9-12.7l-1.8-25.3l35.3,21.4c-0.5,1.2-0.8,2.5-0.8,4
		c0,0.6,0.1,1.2,0.2,1.6L211.1,779.7z M251,758.8l-19.7-47.1l20-29.9v77C251.3,758.8,251.2,758.8,251,758.8z M254.4,681.6l27,40.2
		c-1.2,1.1-2,2.6-2,4.7c0,0.6,0.1,1.2,0.2,1.6l-23.4,31.8c-0.6-0.3-1.2-0.6-1.8-0.8L254.4,681.6L254.4,681.6z M255.9,678.2L305,680
		l-17.1,40.4c-1.2-0.2-2.4-0.2-3.5,0L255.9,678.2z M309.8,677.8l24.7-26.3c1.6,1.2,3.8,1.7,5.8,1.5l6.5,18c-1.1,1-1.8,2.4-1.8,4.3
		c0,3.7,2.6,5.6,5.5,5.9l2.1,5.7c-1.6,0.8-2.9,2.2-3.7,4.1L309.8,677.8z M303.7,676.8l-47.4-1.7l24.8-25.6L303.7,676.8z
		 M253.6,673.7l-0.7-2.2L234,611.3l18.9,14.7l26.8,20.8l0,0L253.6,673.7z M234.9,608.2l18-2.2l17.1-2.1c0.1,3.3,2.2,5.3,4.6,5.9
		l4.5,32.6l-26.2-20.3L234.9,608.2z M234,605.2l18.9-31.1l0.1-0.2l18.5,25.7c-0.3,0.3-0.5,0.7-0.8,1.2l-17.8,2.2L234,605.2z
		 M230.9,604.5l-26.4-32.9c0.2-0.4,0.2-0.7,0.4-1.2l45.5,2.2L230.9,604.5z M191.1,562.9l-27.2-21l42.5-13.7l-11.5,32.7
		C193.4,561.2,192.1,561.9,191.1,562.9z M211.9,526.8l33.3-11.4c0.5,0.8,1.2,1.5,1.9,2.2l3.9,49.5L211.9,526.8z M211.1,523.8
		l-0.9-12.7l-1.8-25.3l36,21.9c-0.2,0.8-0.4,1.8-0.4,2.8c0,0.7,0.1,1.3,0.2,1.9L211.1,523.8z M250.7,502l-18.4-44.2l46.8,12.8
		c0,0.7,0.1,1.3,0.2,1.9l-22.1,30C255.3,501.7,253,501.5,250.7,502z M232.1,454.6l19.3-28.8l1.5-2.3l0.1-0.1l1.5,2.2l26.9,39.9
		c-0.6,0.5-1.2,1.2-1.5,2.1L232.1,454.6z M255.9,422.4l49.1,1.8l-17.2,40c-1.2-0.3-2.5-0.3-3.8,0.1L255.9,422.4z M309.8,422l25-26.6
		c1.5,0.9,3.4,1.3,5.2,1.2l12.6,34.7c-1.7,0.8-3.1,2.1-3.8,4L309.8,422z M347,391.7l35.1,11.6l-22,28c-1.4-0.6-2.8-0.8-4.4-0.7
		l-12.6-34.7C344.9,395,346.2,393.6,347,391.7z M386.3,405.8l36.8,27.5l-32.3,30L386.3,405.8z M431,432.2l31.9-15.4
		c1.6,2.1,4.2,3,6.8,2.8l13.4,34.6L431,432.2z M476.2,415.4l30,6.5l-20.5,30.3l-13-33.5C474.3,418.1,475.5,417,476.2,415.4z
		 M511.5,422.4l49.1,1.8l-16.7,39.1c-1.5-0.3-3.1-0.2-4.5,0.5L511.5,422.4z M588.3,483.7l-40-12.6c0.2-0.6,0.3-1.3,0.3-2
		c0-1.9-0.8-3.5-1.8-4.4l16.2-38.2L588.3,483.7z M588.3,486.9l-20.4,21.7c-1.5-0.3-3.2-0.2-4.7,0.3l-17.4-34.7
		c0.2-0.2,0.5-0.3,0.6-0.5L588.3,486.9z M589.8,489.7l1.8,21.5l2.2,26c-0.5,0.2-1.1,0.5-1.5,0.8l-19-17.8c0.6-1.1,1-2.5,1-4
		c0-3-1.4-5.1-3.3-6.5L589.8,489.7z M597.5,552.1l15.7,39.9L569,564.7l21.6-15.5C592.2,551.3,594.9,552.3,597.5,552.1z M564.9,565.9
		l3.8,31.6l-30.9-43L564.9,565.9z M578.1,606.3l35.6-8.3l-17.2,39.9c-1,0-2,0.2-2.9,0.5l-18.7-24.2c1.9-1.2,3.3-3.4,3.3-6.5
		C578.2,607.2,578.1,606.7,578.1,606.3z M590.4,646.9l-25.4,27l7-58.8l19.2,24.8c-0.8,1-1.3,2.3-1.3,4
		C589.7,645.2,590,646.2,590.4,646.9z M607.3,700.8L591,738.2L565.7,681l37.9,12.9l0,0C603.7,697.2,605.2,699.5,607.3,700.8z
		 M588.3,739.6l-38.6-12.1c0.2-0.8,0.4-1.6,0.4-2.6c0-2.7-1.1-4.8-2.6-6.1l15.4-36.4L588.3,739.6z M588.3,742.8l-19.5,20.7
		c-2-0.5-4.2-0.5-6.1,0.1l-16.1-32c0.6-0.4,1.2-0.8,1.7-1.5L588.3,742.8z M594.5,742.5l47.8-17.4l-14.4,30.3
		c-3.1-0.4-6.5,0.5-8.7,2.6L594.5,742.5z M597.1,807.1l16.1,40.8l-39.6-24.5c0.3-0.7,0.5-1.5,0.5-2.3c0-1.3-0.4-2.4-1-3.2l18-13.1
		C592.5,806.4,594.9,807.3,597.1,807.1z M538.1,899.4l-4.8-34.9c1.2-0.4,2.3-1,3.2-2L562,866c0.2,0.8,0.6,1.6,1.1,2.3L538.1,899.4z
		 M534.8,898.3l-26.2-20.4l-12.4-9.6c0.2-0.8,0.4-1.6,0.4-2.5s-0.2-1.7-0.4-2.5l12.4-1.5l15.3-1.8c0.8,3.1,3.5,4.8,6.3,5
		L534.8,898.3z M480.7,867.6l-39.8,16.2l-1.2-1.7l11.4-47.4c0.6,0.1,1.3,0.2,1.9,0.2c2.7,0,5.2-1,7.2-2.7l22.6,28
		c-1.3,1.3-2.2,3.1-2.2,5.5C480.5,866.4,480.5,867,480.7,867.6z M434.8,882.5l-30.4-21.2l39.8-31c1.1,1.4,2.5,2.5,4,3.3l-11.5,47.7
		L434.8,882.5z M399.7,862.6l-15.4,47.1l-21.5-55.8L399.7,862.6z M357.9,853.7l-17.1,39.9c-1.1-0.1-2.1,0.1-3.1,0.4l-18.4-23.7
		c2.5-1.2,4.4-3.6,4.4-7.3c0-0.5,0-0.8-0.1-1.3L357.9,853.7z M309.1,929.9l7-58.8l18.8,24.3c-1.5,1.2-2.4,3.1-2.4,5.5
		c0,1.2,0.2,2.4,0.7,3.3L309.1,929.9z M306,930.6l-22.6-27.4l27-33.5c0.8,0.5,1.8,1,2.8,1.2L306,930.6z M226.9,866.8l-41.9,17
		l-1.2-1.7l12.8-52.8c1.6,0.2,3.2-0.2,4.6-1.1l27,33.6c-0.8,1-1.3,2.3-1.3,4C226.8,866.2,226.8,866.5,226.9,866.8z M203.9,823.2
		c0-0.1,0-0.1,0-0.2c0-3.8-2.8-6-5.8-6.3l11.4-32.3l39.6,40.8L203.9,823.2z M191.9,819.4l-28-21.7l42.5-13.7l-11.7,33.2
		C193.6,817.7,192.6,818.4,191.9,819.4z M162.6,794.9l2.2-27.9l1-13.1l19.4,13.1l20.7,14L162.6,794.9z M168,751.8l37.2-10.8
		l1.9,26.1l0.8,11.7l-17.2-11.7L168,751.8z M229.2,714.4l18.8,45c-0.9,0.4-1.8,0.8-2.5,1.5l-36.6-22.3L229.2,714.4z M208.6,734.3
		l5.3-59.5l14,36.3L208.6,734.3z M215.3,670.1l35,7.6L230,708.1L215.3,670.1z M214.8,666.9l16.3-54.6l19.6,62.4L214.8,666.9z
		 M185.1,628l-1.2-1.7l12.1-50.1c2.4,0.2,4.9-0.4,6.7-2l26.7,33.3l-0.8,2.9L185.1,628z M178.9,626.8l-30.4-21.2l41.7-32.4
		c0.7,1,1.6,1.8,2.7,2.2l-12.2,50.2L178.9,626.8z M148.4,601.8l13.2-57.8l27.8,21.5c-0.4,0.9-0.5,1.9-0.5,3.1c0,0.6,0.1,1.2,0.2,1.7
		L148.4,601.8z M145.4,601l-18.5-39l31.5-17.7L145.4,601z M162.6,539.1l2.2-27.9l1-13.1l19.4,13.1l20.7,14L162.6,539.1z M168,495.9
		l37.2-10.8l1.9,26.1l0.8,11.7l-17.3-11.7L168,495.9z M166.2,493.2l4.7-56l33.1,45L166.2,493.2z M229.2,458.5l18.7,44.8
		c-0.8,0.5-1.5,1.2-2.2,1.8l-36.8-22.4L229.2,458.5z M208.6,478.4l5.3-59.5l14.1,36.4L208.6,478.4z M215.3,414.4l35,7.6l-20.4,30.4
		L215.3,414.4z M256.4,419.3l24.8-25.6l22.6,27.3L256.4,419.3z M237.8,358.4l15.1,11.7l26.8,20.8l0,0l-26.2,26.9l-0.7-2.2
		l-17.5-55.9C236.3,359.5,237.1,359.1,237.8,358.4z M316.5,360l17.6,22.7c-1.6,1.3-2.8,3.3-2.8,6.1c0,1.8,0.5,3.3,1.3,4.5l-23.5,25
		l6.9-58.2C316.2,360.1,316.4,360,316.5,360z M343.9,382.3l16.5-38.2l21.6,56.1l-34.6-11.4C347.4,385.6,346,383.4,343.9,382.3z
		 M434.6,374.5l0.8,0.6l-2.9,14.5c-2.3,0.4-4.4,2.1-4.4,5.1c0,2.2,1.1,3.7,2.5,4.5l-1.1,5.5c-2.8,0.3-5.3,2.3-5.3,5.9
		c0,2.6,1.3,4.4,3.1,5.2l-2.9,14.6l-37.2-27.8L434.6,374.5z M483.1,358.2l-13.8,46.5c-1.3,0-2.5,0.2-3.7,0.8l-22.9-30.9L483.1,358.2
		z M537,393.8l22.6,27.3l-47.4-1.7L537,393.8z M591.6,394.3c1.2,0.8,2.5,1.2,3.9,1.2l13.5,37.2c-1.4,0.5-2.6,1.5-3.2,2.8L565.6,422
		L591.6,394.3z M601.4,391.2l36.5,12L614.4,433c-0.7-0.4-1.5-0.5-2.2-0.7l-13.6-37.6C599.9,394.1,601,392.9,601.4,391.2z
		 M639.2,406.5l4.4,56.5l-26.9-21.7c0.5-0.8,0.8-1.8,0.8-3.1c0-1.3-0.3-2.3-0.8-3.1L639.2,406.5z M642.3,465.9l-48.5,17.7l17.2-39.4
		c1.2,0.1,2.4-0.2,3.5-0.7L642.3,465.9z M645.9,468.9l27.2,25.6l-35.6,8.8c-1.2-2.3-3.1-4.2-5.6-5.2L645.9,468.9z M617.1,504.4
		c-0.5,1.2-0.8,2.5-0.8,3.9c0,2.2,0.7,4.2,1.8,5.9l-18.9,22.6c-0.8-0.2-1.8-0.3-2.6-0.2l-2.1-25.3l-1.8-22.1L617.1,504.4z
		 M627.6,519.5c0.2,0,0.2,0,0.4,0l6.7,39.7L604,548.8c0.8-1.2,1.2-2.6,1.2-4.4c0-2.8-1.2-4.9-2.9-6.1l18-21.6
		C622.2,518.3,624.7,519.5,627.6,519.5z M634.3,562.2l-17.7,30l-16.1-40.8c0.3-0.1,0.5-0.2,0.8-0.4L634.3,562.2z M612.4,595.1
		l-35.4,8.2c-1.2-1.8-3-2.8-4.9-3.2l-3.8-32.3L612.4,595.1z M618.8,598l36.9,8.8l-15.4,47.1L618.8,598z M637.9,655.8l-35-11.5
		c0-0.1,0-0.2,0-0.2c0-2.8-1.4-4.6-3.2-5.5l16.7-38.8L637.9,655.8z M637.9,659.1l-21.7,27.6c-1.5-0.7-3.1-1-4.8-0.8l-13-35.8
		c1.5-0.5,2.8-1.4,3.7-2.8L637.9,659.1z M639.2,662.3l4.4,56.5L619,699c1-1.3,1.6-3,1.6-5.1c0-2.3-0.8-4.1-2-5.5L639.2,662.3z
		 M642.3,721.7l-48.5,17.7l16.3-37.5c2.2,0.5,4.5,0.2,6.4-0.9L642.3,721.7z M645.9,724.8l27.2,25.6l-38,9.4c-1-1.7-2.5-2.9-4.2-3.7
		L645.9,724.8z M617.4,760.4c-0.6,1.2-1,2.8-1,4.5c0,2.2,0.6,4.1,1.6,5.5l-19.2,23c-0.7-0.2-1.4-0.2-2.1-0.3l-2.2-26l-1.8-22.1
		L617.4,760.4z M627.8,774.4l6.8,40.6l-31.9-10.8c0.8-1.1,1.2-2.5,1.2-4.1c0-2.4-0.9-4.1-2.4-5.4l18.5-22.2
		C622.3,774.2,625.1,774.7,627.8,774.4z M634.3,818.2l-17.7,30l-16.4-41.6L634.3,818.2z M612.4,850.9l-35.9,8.4
		c-1.1-1.5-2.6-2.5-4.4-3l-3.5-29.7c1-0.1,2.1-0.4,2.9-0.9L612.4,850.9z M618.8,853.7l36.9,8.8l-15.4,47.1L618.8,853.7z
		 M637.9,911.7L602,899.9c-0.1-2.3-1.2-3.9-2.7-4.9l17-39.4L637.9,911.7z M565,929.9l6.9-58.6c0.1,0,0.1,0,0.2,0l18.8,24.3
		c-1.2,1.1-1.9,2.6-1.9,4.6c0,1.3,0.3,2.4,0.8,3.3L565,929.9z M561.8,930.6l-22.7-27.4l26.3-32.7c1,0.6,2.2,0.9,3.4,1.1L561.8,930.6
		z M482.7,871.3L468,920.6l-25.3-34.3l39.2-16C482.1,870.7,482.4,871,482.7,871.3z M431.8,884.3l-44.5,26.5l15.3-46.9L431.8,884.3z
		 M381.9,911.7l-34.2-11.3c-0.2-3-1.9-5.1-4.1-6.1l16.7-38.7L381.9,911.7z M382,914.9l-23,29.3c-0.8-0.3-1.8-0.5-2.7-0.5l-13-35.9
		c1.9-0.7,3.5-2.2,4.2-4.4L382,914.9z M350.5,947.5l-40.7-13.7l25.3-27c1.4,1.2,3.2,1.7,5.1,1.7l13.1,36.1
		C352.1,945.1,351,946.1,350.5,947.5z M303.7,932.8l-47.4-1.7l24.8-25.6L303.7,932.8z M250.6,930.5l-35.9-7.8l15.4-51.5
		c0.7,0.3,1.4,0.5,2.2,0.7L250.6,930.5z M212.2,920.5l-25.3-34.2l40.4-16.4L212.2,920.5z M176.1,884.3l-44.5,26.5l15.3-46.9
		L176.1,884.3z M148.6,861.3l43.9-34.1c0.4,0.4,0.8,0.8,1.3,1l-12.9,53.1l-1.8,1.1L148.6,861.3z M148.4,857.6l13.2-57.8l29.2,22.6
		c0,0.2,0,0.4,0,0.6c0,0.5,0.1,1.1,0.2,1.5L148.4,857.6z M145.4,856.8l-18.5-38.9l31.5-17.7L145.4,856.8z M126.1,814.9l-7.3-43.1
		c0.7-0.3,1.4-0.8,2-1.2l37,26.4L126.1,814.9z M118.7,757.1l15.4-32.3l27.2,25.6l-39.2,9.7C121.4,758.7,120.2,757.7,118.7,757.1z
		 M135.9,722.3l31.9-29.6l-2,24.1c-4.2,0.2-8.2,3.1-8.2,8.5c0,4.8,3.1,7.6,6.8,8.3l-1.2,14.2L135.9,722.3z M172.1,689.5l39.1-18.9
		l-5.7,64.2L172.1,689.5z M186.9,630.5l40.4-16.4l-15.1,50.6L186.9,630.5z M176.1,628.4l-44.5,26.5l15.3-46.9L176.1,628.4z
		 M128.6,653.7l-21.5-55.8l36.9,8.8L128.6,653.7z M107,594.7l17.7-30.1l18.4,38.7L107,594.7z M104.9,592.3l-16.4-41.5l34.1,11.5
		L104.9,592.3z M123.7,507l39-9.7l-1.1,13.9l-2.2,27.3l-35.9-25.6c0.3-0.9,0.5-1.9,0.5-3.1C124.2,508.8,124,507.9,123.7,507z
		 M135.9,466.4l31.9-29.6l-4.6,55.1L135.9,466.4z M172.1,433.7l39.1-18.9l-5.7,64.2L172.1,433.7z M171.9,430.4l10-50
		c1.7,0.2,3.4-0.2,4.8-1l24,32.3L171.9,430.4z M131.5,399.1l15.3-46.9l29.1,20.3c0,0.1,0,0.2-0.1,0.2L131.5,399.1z M270.8,347.9
		c0.2,2.3,1.8,3.7,3.6,4.2l4.7,34.5L253,366.3l-13.4-10.4c0.2-0.7,0.4-1.5,0.4-2.3c0-0.6-0.1-1.2-0.2-1.8l13.2-1.6L270.8,347.9z
		 M280.1,350.8l27,3.8c0.2,0.6,0.4,1.2,0.6,1.6l-25.4,31.6l-4.8-35.6C278.5,352,279.4,351.5,280.1,350.8z M322.7,350.2L358,342
		l-16.8,39.1c-1.4-0.2-2.8-0.2-4.1,0.2l-17.4-22.5c2-1.2,3.4-3.4,3.4-6.5C323,351.6,322.8,350.9,322.7,350.2z M363,342l36.9,8.8
		l-15.4,47.1L363,342z M402.6,352.1l29.3,20.4L387.4,399L402.6,352.1z M493.3,358.2l15.4,11.9l26.8,20.8l0,0l-26.2,26.9l-0.7-2.2
		L491,359.5C491.8,359.4,492.6,358.8,493.3,358.2z M567.1,356.7c0.6,0.5,1.2,0.8,2,1.1l-7.2,61.2l-22.7-27.5L567.1,356.7z
		 M579,350.1l34.8-8.1l-17.9,41.6c-0.5,0-0.8,0-1.3,0.1l-20-26c2.5-0.9,4.5-3.1,4.5-6.6C579.1,350.8,579,350.5,579,350.1z
		 M616.2,343.9l21.6,56.1l-36.4-12c-0.4-1.6-1.4-2.8-2.7-3.5L616.2,343.9z M678.9,433.2l-32.3,30l-4.4-57.4L678.9,433.2z
		 M679.5,436.9l-4.6,55.1l-27.4-25.5L679.5,436.9z M682.5,437.3l33.1,45l-37.9,11L682.5,437.3z M716.8,485.1l1.9,26.1l0.8,11.7
		l-17.2-11.7l-22.7-15.4L716.8,485.1z M674.3,497.3l-1.1,13.9l-2.2,27.3l-34.3-24.4c1.1-1.7,1.7-3.7,1.7-5.8c0-0.7-0.1-1.4-0.2-2.1
		L674.3,497.3z M669.4,541.1L637.6,559l-6.8-40.1c1.5-0.5,2.8-1.3,4.1-2.4L669.4,541.1z M670,544.4l-13,56.7l-18.5-39L670,544.4z
		 M654.9,603.4l-36.2-8.7l17.7-30.1L654.9,603.4z M678.9,689l-32.3,30l-4.4-57.4L678.9,689z M679.5,692.7l-4.6,55.1l-27.3-25.7
		L679.5,692.7z M682.5,693.1l33.1,45l-37.9,11L682.5,693.1z M716.8,741l1.9,26.1l0.8,11.7l-17.2-11.7l-22.7-15.4L716.8,741z
		 M674.3,753.2l-1.1,13.9l-2.2,27.3L635.5,769c0.5-1.2,0.8-2.5,0.8-4.1c0-0.8-0.1-1.5-0.2-2.2L674.3,753.2z M669.4,797l-31.8,17.9
		l-7-41.2c1.2-0.5,2.2-1.2,3.1-2.1L669.4,797z M670,800.2l-13,56.7L638.5,818L670,800.2z M654.9,859.2l-36.2-8.6l17.7-30.1
		L654.9,859.2z M685.2,885.8l-42.2,25l15.3-46.9l27.1,18.9c-0.2,0.8-0.3,1.5-0.3,2.4C685.2,885.4,685.2,885.5,685.2,885.8z
		 M690.2,892.7l-9.8,49.5l-37.2-27.8l42.9-25.5C686.9,890.7,688.3,892,690.2,892.7z M678.9,945l-32.3,30l-4.4-57.4L678.9,945z
		 M605.9,947.4l-40.2-13.7l26.3-28c1,0.5,2.2,0.8,3.3,0.9l13.7,37.8C607.7,945,606.5,946,605.9,947.4z M559.5,932.8l-47.4-1.7
		l24.8-25.6L559.5,932.8z M506.3,930.5l-35.9-7.8l14.8-49.8c1,0.4,2.1,0.5,3.1,0.6L506.3,930.5z M466.3,923.4l-38.7,18.7l10.8-54.2
		l0.1,0.2l1.3-0.5L466.3,923.4z M424.5,942.1l-37.2-27.8l47.3-28.1l0.8,0.6L424.5,942.1z M423.1,945l-32.3,30l-4.4-57.4L423.1,945z
		 M387.7,974.8l-25.9-20.9c0.7-1,1.2-2.2,1.2-3.7c0-1.8-0.5-3.1-1.5-4.1l21.9-27.8L387.7,974.8z M352.2,955.1l-17,39.1L309.9,937
		l40,13.6C350.1,952.6,350.9,954.1,352.2,955.1z M230.1,964l-14.7-38l35,7.6L230.1,964z M171.9,942.1l10.8-54.2l0.1,0.2l1.3-0.5
		l26.5,35.9L171.9,942.1z M126.2,911.7L91,900.1c-0.1-2.7-1.4-4.5-3.2-5.4l16.8-39.1L126.2,911.7z M107.1,853.7l36.9,8.8l-15.4,47.1
		L107.1,853.7z M107,850.6l17.7-30.1l18.4,38.7L107,850.6z M93.1,791l16.7-20c1.8,1.2,3.9,1.8,6.1,1.5l7.1,42.4l-27-9.1
		c1.2-1.6,2-3.6,2-6.1C98,795.5,95.9,792.6,93.1,791z M84.9,790l-1.8-23l-1.8-22.1l26,16.3c-0.4,0.9-0.5,2-0.5,3.1
		c0,1.7,0.4,3.1,1.2,4.3l-17.7,21.1C88.3,789.6,86.5,789.6,84.9,790z M82.9,742.5l47.8-17.4l-15,31.3c-2.5-0.2-5.1,0.6-6.9,2.4
		L82.9,742.5z M82.2,739.4l17.1-39.3c1.4,0.2,2.8,0.2,4.1-0.3l27.3,22L82.2,739.4z M130.5,661.5l36.8,27.5L135,719L130.5,661.5z
		 M131.5,658.5l47.3-28.1l0.8,0.6l-11,55.3L131.5,658.5z M126.2,655.8l-34.8-11.4c-0.1-2.8-1.5-4.8-3.5-5.8l16.7-38.9L126.2,655.8z
		 M57.4,564.8L79.1,549c1.5,1.9,4,2.7,6.4,2.4l16.1,40.6L57.4,564.8z M82.9,486.5l47.8-17.4l-15.4,32.3c-2.1,0-4.1,0.7-5.8,2
		L82.9,486.5z M82.2,483.5L98.9,445c1.8,0.4,3.6,0.2,5.2-0.5l26.5,21.4L82.2,483.5z M130.5,405.8l36.8,27.5L135,463.2L130.5,405.8z
		 M131.5,402.6l44.6-26.5c0.5,1.5,1.5,2.6,2.7,3.3l-10.1,51L131.5,402.6z M107.1,342l36.9,8.8l-15.4,47.1L107.1,342z M107,338.9
		l17.7-30.1l18.4,38.7L107,338.9z M192,316c0.5,0.5,1,0.8,1.6,1.2l-12.1,50.1c-1.7,0.2-3.2,1.1-4.3,2.5l-28.6-19.9L192,316z
		 M203.5,314.5l46.8,2.2l1.8,0.1l0.8,1.2v0.3l0.1-0.2l18.7,26c-0.2,0.2-0.3,0.5-0.5,0.7l-18.4,2.2l-14.8,1.8
		c-2.1-2.1-5.5-2.5-8.1-1.4L203.5,314.5z M276,301.3l-2.2,40.3l-18.7-26L276,301.3z M279.1,299.8l32.6,45.3c-2.5,1-4.4,3.1-4.7,6.2
		l-25.5-3.5c0-0.2,0.1-0.5,0.1-0.7c0-3.1-2.2-4.9-4.7-5.1L279.1,299.8z M282.1,298.7l27.1,11.4l3.8,31.6L282.1,298.7z M356.5,339.2
		l-35.3,8.2c-1.2-1.5-3.1-2.5-5-2.8l-3.8-32.7L356.5,339.2z M362.9,338.9l17.7-30.1l18.4,38.7L362.9,338.9z M448.1,315.7
		c0.4,0.4,0.8,0.7,1.4,0.9l-12.9,53.1l-1.8,1.1l-30.4-21.2L448.1,315.7z M529.1,347.6l-0.1,0.8h0.5l5.2,38.1l-26.2-20.4l-13.8-10.7
		c0.2-0.6,0.3-1.3,0.3-2c0-0.6-0.1-1.2-0.2-1.8l13.7-1.7L529.1,347.6z M533,350.4l31.7,4.4l-26.6,32.9L533,350.4z M618.7,338.9
		l17.7-30.1l17,35.6c-1.4,1-2.3,2.5-2.3,4.8c0,2.7,1.5,4.5,3.3,5.4L640.3,398l-21.5-55.8l-0.8-2L618.7,338.9z M738.9,358.2
		l-15.1,50.7l-23.5-31.7c0.5-1,0.8-2.2,0.9-3.6L738.9,358.2z M722.1,411.7l-38.7,18.7l3.1-15.5c1.8-0.5,3.4-1.8,3.4-4.3
		c0-1.7-0.8-2.9-1.8-3.6l1.6-8.2c3.1,0,6.1-2,6.1-5.9c0-2.9-1.7-4.8-3.8-5.5l1.2-6.1c1.8,0,3.6-0.5,5.1-1.6L722.1,411.7z
		 M722.7,414.8L717,479l-33.3-45.3L722.7,414.8z M725.4,419l14.1,36.4l-19.4,23.1L725.4,419z M740.8,458.5l18.7,44.6
		c-0.9,0.4-1.8,1-2.6,1.7l-36.3-22L740.8,458.5z M755.1,507.3c-0.5,1.2-0.9,2.6-0.9,4.2c0,0.5,0.1,1.1,0.2,1.6l-31.6,10.8l-0.9-12.7
		l-1.8-25.3L755.1,507.3z M717.4,525.2l-43.2,13.9l2.2-27.9l1-13.1l19.4,13.1L717.4,525.2z M701.1,565.5c-0.4,0.8-0.5,1.8-0.5,2.9
		c0,0.5,0.1,1.1,0.2,1.6l-40.7,31.6l13.2-57.8L701.1,565.5z M738.5,615.9l-14.6,48.8l-24.7-33.3c0.1-0.4,0.2-0.8,0.2-1.2l37.8-15.4
		C737.5,615.2,738,615.5,738.5,615.9z M722.1,667.4l-38.7,18.7l10-50.1c1.5-0.2,3.1-0.7,4.1-1.8L722.1,667.4z M722.7,670.6
		l-5.7,64.2l-33.3-45.3L722.7,670.6z M725.4,674.7l14.1,36.4l-19.4,23.1L725.4,674.7z M755.4,763.4c-0.5,1.1-0.8,2.4-0.8,3.9
		c0,0.5,0.1,1.1,0.2,1.6l-31.9,10.9l-0.9-12.7l-1.8-25.3L755.4,763.4z M717.4,781l-43.2,13.9l2.2-27.9l1-13.1l19.4,13.1L717.4,781z
		 M700.7,821.1c-0.2,0.8-0.4,1.8-0.4,2.8c0,0.8,0.1,1.6,0.2,2.3L660,857.7l13.2-57.8L700.7,821.1z M738.9,869.9l-15.1,50.6l-23-31
		c0.7-1.2,1.2-2.6,1.2-4.4c0-0.1,0-0.2,0-0.3L738.9,869.9z M722.1,923.4l-38.7,18.7l9.7-48.8c2,0.1,4-0.4,5.6-1.5L722.1,923.4z
		 M679.5,948.7l-4.6,55.1l-27.3-25.7L679.5,948.7z M593.9,995.4l16.5-38c1.9,0.5,4.1,0.3,5.9-0.6l26,21L593.9,995.4z M591,994.2
		L565.7,937l39.6,13.4c0,0.1,0,0.1,0,0.2c0,2.5,1,4.2,2.5,5.4L591,994.2z M542.1,979.5l-30.5-45.4l49.1,1.8L542.1,979.5z M485.7,964
		L471,926l35,7.6L485.7,964z M507.1,937.7v77.6l-20-47.8L507.1,937.7z M464.3,990.1l5.3-59.5l14.1,36.4L464.3,990.1z M461.2,990.7
		l-33.3-45.3l39.1-18.9L461.2,990.7z M423.6,948.7l-4.6,55.1l-27.3-25.7L423.6,948.7z M338.1,995.4l17-39c1.5,0.3,3.1,0.2,4.4-0.5
		l27,21.8L338.1,995.4z M332.4,995.5l-39.3-12.4c0.1-0.4,0.1-0.8,0.1-1.3c0-2.4-0.9-4.1-2.4-5.4l16.2-38.2L332.4,995.5z
		 M251.2,1014.9l-19.7-47.3l20-29.9v77.2C251.3,1014.9,251.3,1014.9,251.2,1014.9z M208.6,990.1l5.3-59.5l14,36.4L208.6,990.1z
		 M205.4,990.7l-33.3-45.3l39.1-18.9L205.4,990.7z M167.9,948.7l-4.6,55.1l-23.3-22c0.8-1.1,1.4-2.5,1.4-4.4c0-1.4-0.3-2.5-0.8-3.5
		L167.9,948.7z M126.8,979.1l-44.6,16.3l17.3-39.6c3,0.2,6.2-1.6,6.2-5.5c0-1.2-0.3-2.2-0.8-3.1l22.7-28.9l4.1,52.5
		c-2.7,0.8-4.9,3.1-4.9,6.7C126.7,978.1,126.7,978.5,126.8,979.1z M54.1,937l40.2,13.6c0.2,1.9,1.1,3.3,2.3,4.1l-17.2,39.4L54.1,937
		z M57.4,820.7l21.4-15.6c1.7,2.7,4.6,4.2,7.7,4.5l15.1,38.2L57.4,820.7z M60.1,774.7c0.3-0.8,0.5-1.6,0.5-2.6c0-2.3-1-4-2.4-5
		l20-21.4l1.8,21.4l2,24.2c-0.8,0.5-1.6,1.2-2.2,1.8L60.1,774.7z M35.1,720.6l16.2-38.2l25.3,57.3l-39.2-12.4c0.1-0.5,0.2-1,0.2-1.6
		C37.6,723.3,36.6,721.6,35.1,720.6z M54.1,681l39.8,13.5c0.2,2,1.2,3.5,2.6,4.4l-17.1,39.3L54.1,681z M29.6,556l23.7,9.9l3.8,31.6
		l-28.5-39.7C29,557.3,29.3,556.7,29.6,556z M62,520.5c0.3-0.9,0.5-1.9,0.5-3.1c0-3.3-1.5-5.7-3.6-7.1l19.4-20.6l1.8,21.4l2.3,28
		c-0.1,0-0.2,0.1-0.3,0.2L62,520.5z M35.9,462.9l15.4-36.4l25.3,57.3l-37.8-12c0.2-0.7,0.3-1.5,0.3-2.3
		C39.1,466.4,37.8,464.2,35.9,462.9z M54.1,425.3l39,13.2c0.2,2.5,1.4,4.4,3.1,5.5l-16.7,38.5L54.1,425.3z M53.4,418.2l7-58.8
		l19.2,24.9c-0.9,1-1.5,2.3-1.5,4.1c0,1.2,0.2,2.1,0.7,2.9L53.4,418.2z M28.6,299.7l24.7,10.4l3.8,31.6l-29.3-40.8
		C28.1,300.5,28.4,300.2,28.6,299.7z M88.6,294.9l34.1,11.5l-17.7,30L88.6,294.9z M126.9,306.1l31.5-17.7l-13,56.7L126.9,306.1z
		 M161.6,288.1l28.4,22c-0.1,0.3-0.1,0.7-0.1,1.1c0,0.8,0.1,1.5,0.3,2.2L148.3,346L161.6,288.1z M280.3,294.6l24.8-26
		c1.2,0.8,2.7,1.4,4.2,1.7l-0.3,36.4L280.3,294.6z M317.5,268.7l17.4,16.4c-0.8,1.2-1.2,2.5-1.2,4.3c0,0.3,0,0.5,0.1,0.8l-21.7,15.7
		l0.3-35.6C314.2,270.3,316,269.7,317.5,268.7z M346.1,295.4l32.4,11l-17.7,30l-15.9-40.3C345.3,295.9,345.7,295.6,346.1,295.4z
		 M382.7,306.1l31.5-17.7l-13,56.7L382.7,306.1z M417.4,288.1l28.6,22.2c0,0.2,0,0.3,0,0.5c0,0.8,0.2,1.6,0.4,2.3l-42.2,32.8
		L417.4,288.1z M531.7,301.3l-2.2,40.3l-18.7-26L531.7,301.3z M534.8,299.8l32.6,45.5c-1.8,1.2-3,3.1-3,5.8c0,0.2,0,0.3,0,0.5
		l-31.9-4.4l-0.2-1.5L534.8,299.8z M537.8,298.7l27.1,11.4l3.8,31.6L537.8,298.7z M536,294.6l25.7-26.9c1.1,0.5,2.2,0.9,3.4,1
		l-0.3,37.9L536,294.6z M571.8,267.1l16.6,15.7c-0.8,1.4-1.2,3-1.2,5c0,1.4,0.2,2.6,0.7,3.8l-20,14.4l0.3-37.3
		C569.5,268.4,570.7,267.9,571.8,267.1z M602.9,295.8l31.3,10.6l-17.7,30l-15.6-39.6C601.6,296.5,602.3,296.2,602.9,295.8z
		 M638.6,306.1l31.5-17.7l-12.5,54.8c-0.5,0-0.8,0-1.3,0.1L638.6,306.1z M673.3,288.1l27.5,21.3c-0.2,0.5-0.2,1.2-0.2,1.8
		c0,1.1,0.2,2,0.5,2.8l-39.6,30.7c-0.3-0.3-0.7-0.5-1-0.7L673.3,288.1z M742.5,348.5l-27.4-34.1l46.8,2.2L742.5,348.5z M700.8,370.4
		c-0.8-2.2-2.5-3.5-4.4-4.3l11.6-47.9c1.7,0,3.5-0.6,4.8-1.7l28.2,35l-0.8,2.9L700.8,370.4z M762.3,418.8l-35.9-7.8l16.3-54.6
		L762.3,418.8z M741.6,452.3l-14.7-38l35,7.6L741.6,452.3z M763,425.9v76.3c-0.2,0-0.4,0-0.5,0.1l-19.4-46.5L763,425.9z
		 M762.7,567.1l-39.1-40.2l31.6-10.8c0.8,1.6,2.2,2.8,3.7,3.6L762.7,567.1z M760.7,569.5l-45.6-2.2c-0.5-3.3-2.9-5.1-5.6-5.7
		l11.6-32.9L760.7,569.5z M744.7,600.9c-1.6-0.2-3.2-0.1-4.8,0.5L715,570.5l46.8,2.2L744.7,600.9z M762.3,674.7l-35.9-7.8l14.9-50.1
		c0.9,0.2,1.8,0.2,2.8,0.2L762.3,674.7z M741.6,708.1l-14.7-38l35,7.6L741.6,708.1z M763,759.1c-0.1,0-0.1,0-0.2,0L743,711.6
		l20-29.9V759.1z M762.7,823l-39.1-40.2l32.2-11c0.8,1.2,1.8,2.2,3.1,2.8L762.7,823z M760.7,825.3l-42-2c-0.2-5.2-4.1-8-8.3-8.4
		l10.7-30.5L760.7,825.3z M744.1,857.6c-1.2,0-2.3,0.2-3.3,0.6l-23.6-29.3c0.5-0.8,0.8-1.5,1.2-2.5l43.5,2.1L744.1,857.6z
		 M762.3,930.5l-35.9-7.8l15.4-51.5c0.7,0.2,1.4,0.3,2,0.3L762.3,930.5z M741.6,964l-14.7-38l35,7.6L741.6,964z M763,1015.3
		l-20-47.8l20-29.9V1015.3z M720.5,994.5l20.3-24.2l18.7,44.9c-1.2,0.2-2.3,0.5-3.4,0.9L720.5,994.5z M677.8,1005l4.7-56l33.1,45
		L677.8,1005z M635,1015.7c-0.8-1.9-2.2-3.2-4-4l14.8-31l27.2,25.6L635,1015.7z M594.5,998.3l47.8-17.4l-14.4,30
		c-3-0.2-6.1,0.9-7.9,3.5L594.5,998.3z M545.4,985.2l42.9,13.5l-19.7,21c-1.8-0.5-3.8-0.3-5.7,0.3L545.4,985.2z M544.5,981.7
		l18.4-43.5l25.3,57.3L544.5,981.7z M510.2,1018.3v-80.8l29.4,43.7l-1.4-1L510.2,1018.3z M464.7,994.5l20.3-24.2l20.4,49
		L464.7,994.5z M422,1005l4.7-56l33.1,45L422,1005z M375.7,1016.6c-0.5-0.7-1.2-1.2-2-1.6l16.4-34.3l27.2,25.6L375.7,1016.6z
		 M338.7,998.3l47.8-17.4l-16,33.4c-1.5,0-3,0.5-4.1,1.5L338.7,998.3z M290.6,987.4c0.5-0.4,0.9-0.8,1.3-1.4l40.4,12.7l-18.4,19.7
		c-2.5-0.5-5.1-0.3-7.4,0.7L290.6,987.4z M208.9,994.5l20.3-24.2l18.8,45.2c-0.8,0.3-1.7,0.8-2.4,1.4L208.9,994.5z M166.2,1005
		l4.7-56l33.1,45L166.2,1005z M120.9,1016.3c-0.7-1-1.6-1.8-2.7-2.2l14.2-29.6c1.7,0.3,3.5,0.1,5-0.6l24,22.5L120.9,1016.3z
		 M82.9,998.3l45.2-16.5c0.5,0.5,0.9,1,1.5,1.4l-14.3,30c-2.1-0.2-4.2,0.5-5.8,1.8L82.9,998.3z M35.3,988.4c0.9-0.5,1.7-1.1,2.3-1.9
		l38.9,12.3l-22.4,24c-0.5,0-1,0-1.5,0.2L35.3,988.4z M-1.5,937.5l26.7,39.7c-0.9,1.2-1.5,2.7-1.5,4.6c0,0.7,0.1,1.3,0.2,1.9
		l-24.4,33.4c-0.3-0.2-0.6-0.4-0.9-0.6C-1.5,1016.5-1.5,937.5-1.5,937.5z M-0.1,934.1l49.1,1.8l-16.4,38.6c-1.7-0.2-3.5,0.1-4.9,0.8
		L-0.1,934.1z M54.1,933.7l26.6-28.3c0.9,0.6,2,1,3.1,1.1l14,38.5c-1.2,0.5-2.2,1.3-2.8,2.5L54.1,933.7z M25.3,905.5l22.6,27.3
		l-47.4-1.7L25.3,905.5z M53.5,870.9c1.1,0.6,2.4,1,3.6,1.1l-6.9,58.7l-22.8-27.4L53.5,870.9z M21.5,863c0.5-0.2,0.8-0.4,1.2-0.7
		l27.1,3.8c0.3,1.1,0.7,2,1.3,2.8l-24.7,30.6L21.5,863z M20,813.1l-2.2,40.1h-0.1l-18.5-25.7L20,813.1z M23.2,811.6l31.9,44.5
		c-2.8,0.9-5.2,3.1-5.6,6.8l-25.1-3.5c0.1-0.4,0.2-0.8,0.2-1.2c0-2.7-1.6-4.3-3.6-4.9L23.2,811.6z M26.2,810.4l27.1,11.4l3.8,31.6
		L26.2,810.4z M24.4,806.4l27.2-28.5c0.6,0.2,1.2,0.3,1.9,0.4l-0.3,40.2L24.4,806.4z M22,804.5l-19.9-32c0.7-0.8,1.2-1.8,1.5-3
		l44.6,5.6c0.2,0.5,0.5,0.8,0.8,1.2L22,804.5z M-1.5,681.6l27.1,40.3c-0.7,1-1.2,2.2-1.2,3.8c0,0.5,0.1,0.8,0.1,1.3L0.1,760.3
		c-0.5-0.3-1-0.5-1.5-0.7L-1.5,681.6L-1.5,681.6z M-0.1,678.2L49,680l-16.7,39.5c-1.4-0.2-2.8-0.1-4.1,0.5L-0.1,678.2z M54.1,677.8
		l26.3-28c1.1,0.8,2.3,1.2,3.6,1.2l13.3,36.6c-1.4,0.8-2.5,1.9-3,3.6L54.1,677.8z M25.3,649.6l22.6,27.3l-47.4-1.7L25.3,649.6z
		 M53.5,615c1.1,0.8,2.3,1.2,3.6,1.5l-6.9,58.3l-22.7-27.6L53.5,615z M21.6,607.7c0.7-0.2,1.3-0.6,1.9-1.1l27.1,3.8
		c0.2,0.9,0.5,1.7,0.9,2.4l-25,31L21.6,607.7z M17.8,558.8c0.6,0.5,1.4,0.9,2.2,1.2l-2,36.3c-0.2,0.1-0.5,0.1-0.8,0.2l-18-25
		L17.8,558.8z M20.8,546.7L3.1,518.2c1.2-1.1,2-2.5,2.5-4.4l39.3,4.9c0.2,1.6,0.8,3,1.7,4.1L24,546.4
		C23,546.3,21.9,546.3,20.8,546.7z M-1.5,425.8L24.2,464c-1.2,1.3-2.1,3.2-2.1,5.5c0,1.5,0.3,2.7,0.8,3.8L0.8,503.2
		c-0.8-0.4-1.5-0.6-2.4-0.8L-1.5,425.8L-1.5,425.8z M-0.1,422.4l49.1,1.8l-16,37.6c-2.1-0.5-4.4-0.4-6.3,0.5L-0.1,422.4z M54.1,422
		l26.8-28.5c0.8,0.5,1.8,0.8,2.7,0.8L97,431.4c-1.5,0.8-2.8,2.2-3.5,4L54.1,422z M25.3,393.8l22.6,27.3l-47.4-1.8L25.3,393.8z
		 M54.8,357.5c0.8,0.5,1.6,0.9,2.5,1.2L50.2,419l-22.7-27.5L54.8,357.5z M21.7,353.3c1.5-0.3,2.8-1.1,3.8-2.3l26.8,3.7
		c0.1,0.2,0.2,0.5,0.4,0.6l-26.1,32.4L21.7,353.3z M19.4,301.8c0.2,0.2,0.4,0.2,0.5,0.3l-2.1,38.3c-0.2,0.1-0.5,0.2-0.8,0.2l-18-25
		L19.4,301.8z M78.8,284.7c-0.2,0.7-0.3,1.5-0.3,2.3c0,0.9,0.2,1.8,0.4,2.6L56.3,306l0.3-38.1c1-0.3,1.9-0.9,2.6-1.6L78.8,284.7z
		 M115.7,260.3l7.2,42.9l-31.6-10.7c1.5-1.2,2.4-3.1,2.4-5.5c0-2.5-1-4.4-2.5-5.6l18.7-22.3C111.6,260.1,113.7,260.6,115.7,260.3z
		 M157.8,285.3L126,303.2l-7.4-43.8c0.5-0.3,1-0.6,1.4-1L157.8,285.3z M206.3,272.3l-11.4,32.4c-1.5,0.4-2.8,1.2-3.7,2.4l-27.3-21.2
		L206.3,272.3z M244.7,259.7c0.6,0.8,1.5,1.5,2.4,2l3.9,49.5l-39.1-40.3L244.7,259.7z M258.9,257.6l42.3,5.3
		c0.3,1.4,0.8,2.6,1.6,3.6l-25,26.2L257.6,260C258.2,259.3,258.6,258.5,258.9,257.6z M371.3,258.4l7.5,44.8l-30.6-10.4
		c0.5-1,0.8-2.2,0.8-3.5c0-3-1.4-5.1-3.4-6.3l21.4-25.7C368.4,258.2,369.8,258.6,371.3,258.4z M413.6,285.3l-31.8,17.9l-7.7-45.6
		c0.1-0.1,0.2-0.2,0.3-0.2L413.6,285.3z M462.2,272.3l-11.3,32c-1.5,0.5-3,1.4-3.8,2.8l-27.4-21.2L462.2,272.3z M502.6,259l4.1,52.1
		l-39.1-40.2L502.6,259z M507.9,257.1l0.7,1.1l0,0L532,296l1.3-0.8l-1.2,0.9l1.6,2.3h-0.4l-0.8-1.3l-22.6,15.4l-1.3-16.7l-3-37.9
		L507.9,257.1z M511.6,257.2l46.2,5.8c0.3,1.1,0.8,2,1.5,2.8l-25.7,26.9L511.6,257.2z M627.3,259.5l7.4,43.7l-29.3-9.9
		c1-1.5,1.6-3.3,1.6-5.6c0-3.3-1.3-5.8-3.3-7.4l18.6-22.2C623.8,259.1,625.5,259.5,627.3,259.5z M669.4,285.3l-31.7,17.9l-7.4-44.1
		c0.5-0.2,1-0.4,1.5-0.7L669.4,285.3z M718,272.3l-11.2,31.9c-1.8,0.2-3.5,1.1-4.6,2.4L675.5,286L718,272.3z M752.2,261.1
		c1.4,2.7,4,4.3,6.8,4.8l3.6,45.3L723.5,271L752.2,261.1z"/>
</g>
<g id="Layer_3">
	<g>
		<path fill="#1761AA" d="M736.6,864.6c0-9.4,14.6-9.4,14.6,0C751.2,874,736.6,874,736.6,864.6z"/>
		<path fill="#1761AA" d="M754.5,767.3c0-6.1,5.3-8.8,10-8.1v16.1C759.8,776,754.5,773.3,754.5,767.3z"/>
		<path fill="#1761AA" d="M700.3,823.9c0-11.9,18.4-11.9,18.4,0C718.7,835.7,700.3,835.7,700.3,823.9z"/>
		<path fill="#1761AA" d="M589,900.3c0-8.4,13.1-8.4,13.1,0C602,908.6,589,908.6,589,900.3z"/>
		<path fill="#1761AA" d="M619.8,950.6c0,9.4-14.6,9.4-14.6,0C605.2,941.1,619.8,941.1,619.8,950.6z"/>
		<path fill="#1761AA" d="M577.8,863.8c0,10.4-16.1,10.4-16.1,0S577.8,853.4,577.8,863.8z"/>
		<path fill="#1761AA" d="M562.4,821.1c0-7.4,11.5-7.4,11.5,0C573.9,828.6,562.4,828.6,562.4,821.1z"/>
		<path fill="#1761AA" d="M528.7,808.8c0-7.9,12.3-7.9,12.3,0S528.7,816.7,528.7,808.8z"/>
		<path fill="#1761AA" d="M589.4,800.1c0-9.4,14.6-9.4,14.6,0S589.4,809.5,589.4,800.1z"/>
		<path fill="#1761AA" d="M636.3,764.9c0,12.9-20,12.9-20,0C616.3,752,636.3,752,636.3,764.9z"/>
		<path fill="#1761AA" d="M453,812.7c6.1,0,11.1,5.1,11.1,11.1c0,6.1-5.1,11.1-11.1,11.1c-6.1,0-11.1-5.1-11.1-11.1
			C441.8,817.8,446.9,812.7,453,812.7z"/>
		<path fill="#1761AA" d="M389.4,816.7c0,10.9-16.9,10.9-16.9,0S389.4,805.8,389.4,816.7z"/>
		<path fill="#1761AA" d="M635.7,1019.1c0,1.5-0.3,2.8-0.9,3.9h-15.1c-0.5-1.1-0.9-2.4-0.9-3.9
			C618.8,1008.2,635.7,1008.2,635.7,1019.1z"/>
		<path fill="#1761AA" d="M538.2,857.9c0,9.4-14.6,9.4-14.6,0S538.2,848.4,538.2,857.9z"/>
		<path fill="#1761AA" d="M517.2,767.7c0,11.9-18.4,11.9-18.4,0C498.8,755.8,517.2,755.8,517.2,767.7z"/>
		<path fill="#1761AA" d="M555.8,772.8c0-12.9,20-12.9,20,0C575.8,785.7,555.8,785.6,555.8,772.8z"/>
		<path fill="#1761AA" d="M702.1,885.2c0,10.9-16.9,10.9-16.9,0S702.1,874.3,702.1,885.2z"/>
		<path fill="#1761AA" d="M620.6,693.9c0,10.9-16.9,10.9-16.9,0C603.7,683.1,620.6,683.1,620.6,693.9z"/>
		<path fill="#1761AA" d="M550.1,724.9c0,10.9-16.9,10.9-16.9,0C533.2,714,550.1,714,550.1,724.9z"/>
		<path fill="#1761AA" d="M383,766.1c0,12.4-19.2,12.4-19.2,0C363.9,753.7,383,753.7,383,766.1z"/>
		<path fill="#1761AA" d="M306.8,863c0-10.9,16.9-10.9,16.9,0S306.8,873.9,306.8,863z"/>
		<path fill="#1761AA" d="M347.9,901c0,9.9-15.4,9.9-15.4,0S347.9,891.1,347.9,901z"/>
		<path fill="#1761AA" d="M363,950.1c0,8.4-13.1,8.4-13.1,0S363,941.7,363,950.1z"/>
		<path fill="#1761AA" d="M226.8,865.8c0-8.4,13.1-8.4,13.1,0C239.9,874.2,226.8,874.2,226.8,865.8z"/>
		<path fill="#1761AA" d="M203.9,823.1c0,8.4-13.1,8.4-13.1,0C190.8,814.7,203.9,814.7,203.9,823.1z"/>
		<path fill="#1761AA" d="M141.3,977.5c0,9.4-14.6,9.4-14.6,0C126.7,968.1,141.3,968.1,141.3,977.5z"/>
		<path fill="#1761AA" d="M105.6,950.1c0,7.4-11.5,7.4-11.5,0S105.6,942.7,105.6,950.1z"/>
		<path fill="#1761AA" d="M91.1,900.3c0,8.4-13.1,8.4-13.1,0S91.1,891.8,91.1,900.3z"/>
		<path fill="#1761AA" d="M66.4,863.8c0,10.9-16.9,10.9-16.9,0S66.4,852.9,66.4,863.8z"/>
		<path fill="#1761AA" d="M98,799.8c0,13.4-20.7,13.4-20.7,0C77.3,786.3,98,786.3,98,799.8z"/>
		<path fill="#1761AA" d="M123.4,764.5c0,10.9-16.9,10.9-16.9,0S123.4,753.6,123.4,764.5z"/>
		<path fill="#1761AA" d="M60.6,772c0,8.4-13.1,8.4-13.1,0S60.6,763.6,60.6,772z"/>
		<path fill="#1761AA" d="M24.6,858.3c0,6.9-10.8,6.9-10.8,0S24.6,851.4,24.6,858.3z"/>
		<path fill="#1761AA" d="M39.2,981.8c0,9.9-15.4,9.9-15.4,0C23.8,971.9,39.2,971.9,39.2,981.8z"/>
		<path fill="#1761AA" d="M122.2,1020.6c0,0.8-0.2,1.6-0.3,2.4h-14.7c-0.2-0.7-0.3-1.5-0.3-2.4
			C106.9,1010.7,122.2,1010.7,122.2,1020.6z"/>
		<path fill="#1761AA" d="M376.9,1020.2c0,1.1-0.2,2-0.6,2.8h-11.1c-0.4-0.8-0.6-1.7-0.6-2.8
			C364.6,1012.3,376.9,1012.3,376.9,1020.2z"/>
		<path fill="#1761AA" d="M349.1,801.7c0,10.4-16.1,10.4-16.1,0S349.1,791.3,349.1,801.7z"/>
		<path fill="#1761AA" d="M480.5,865.8c0-10.4,16.1-10.4,16.1,0S480.5,876.2,480.5,865.8z"/>
		<path fill="#1761AA" d="M754.1,511.5c0-6.5,5.3-9.6,10.4-9.3v18.5C759.4,521.1,754.1,518,754.1,511.5z"/>
		<path fill="#1761AA" d="M638.7,508.3c0,6.1-5.1,11.1-11.1,11.1c-6.1,0-11.1-5.1-11.1-11.1s5-11.1,11.1-11.1
			S638.7,502.3,638.7,508.3z"/>
		<path fill="#1761AA" d="M602.8,644.1c0,8.4-13.1,8.4-13.1,0C589.7,635.8,602.8,635.7,602.8,644.1z"/>
		<path fill="#1761AA" d="M578.2,607.7c0,10.4-16.1,10.4-16.1,0C562.1,597.3,578.2,597.3,578.2,607.7z"/>
		<path fill="#1761AA" d="M699.4,629.9c0,8.4-13.1,8.4-13.1,0C686.3,621.5,699.4,621.5,699.4,629.9z"/>
		<path fill="#1761AA" d="M700.6,568.5c0-9.4,14.6-9.4,14.6,0C715.2,577.9,700.6,577.9,700.6,568.5z"/>
		<path fill="#1761AA" d="M700.6,311.1c0-9.4,14.6-9.4,14.6,0C715.2,320.6,700.6,320.6,700.6,311.1z"/>
		<path fill="#1761AA" d="M651.2,349.1c0-7.9,12.3-7.9,12.3,0S651.2,357.1,651.2,349.1z"/>
		<path fill="#1761AA" d="M605.2,438.3c0-7.9,12.3-7.9,12.3,0S605.2,446.2,605.2,438.3z"/>
		<path fill="#1761AA" d="M589.3,389.5c0-7.9,12.3-7.9,12.3,0S589.3,397.5,589.3,389.5z"/>
		<path fill="#1761AA" d="M564.5,351.1c0-9.4,14.6-9.4,14.6,0C579.1,360.6,564.5,360.6,564.5,351.1z"/>
		<path fill="#1761AA" d="M525.2,602.2c0-7.9,12.3-7.9,12.3,0C537.5,610.1,525.2,610.1,525.2,602.2z"/>
		<path fill="#1761AA" d="M536.3,469.1c0-7.9,12.3-7.9,12.3,0S536.3,477,536.3,469.1z"/>
		<path fill="#1761AA" d="M481.2,353.5c0-8.9,13.8-8.9,13.8,0S481.2,362.4,481.2,353.5z"/>
		<path fill="#1761AA" d="M459.9,310.7c0,8.9-13.8,8.9-13.8,0S459.9,301.8,459.9,310.7z"/>
		<path fill="#1761AA" d="M469,482.9c0,7.9-12.3,7.9-12.3,0S469,475,469,482.9z"/>
		<path fill="#1761AA" d="M459.9,567.7c0,8.9-13.8,8.9-13.8,0C446.1,558.8,459.9,558.8,459.9,567.7z"/>
		<path fill="#1761AA" d="M444.9,629.9c0,7.9-12.3,7.9-12.3,0C432.6,622,444.9,622,444.9,629.9z"/>
		<path fill="#1761AA" d="M379.6,508.7c0,9.9-15.4,9.9-15.4,0S379.6,498.8,379.6,508.7z"/>
		<path fill="#1761AA" d="M347.5,544.7c0,8.4-13.1,8.4-13.1,0C334.4,536.3,347.5,536.3,347.5,544.7z"/>
		<path fill="#1761AA" d="M319.7,516.6c0,11.9-18.4,11.9-18.4,0C301.3,504.7,319.7,504.7,319.7,516.6z"/>
		<path fill="#1761AA" d="M305.5,564.2c0-8.4,13.1-8.4,13.1,0C318.6,572.5,305.5,572.5,305.5,564.2z"/>
		<path fill="#1761AA" d="M323.4,606.9c0,10.4-16.1,10.4-16.1,0C307.2,596.6,323.4,596.5,323.4,606.9z"/>
		<path fill="#1761AA" d="M347.5,388.8c0,10.4-16.1,10.4-16.1,0C331.3,378.4,347.5,378.4,347.5,388.8z"/>
		<path fill="#1761AA" d="M348.4,438.3c0-10.4,16.1-10.4,16.1,0C364.5,448.6,348.4,448.6,348.4,438.3z"/>
		<path fill="#1761AA" d="M411.3,517.8c0-10.4,16.1-10.4,16.1,0C427.4,528.2,411.3,528.2,411.3,517.8z"/>
		<path fill="#1761AA" d="M431.8,468.3c0,10.4-16.1,10.4-16.1,0C415.6,457.9,431.8,457.9,431.8,468.3z"/>
		<path fill="#1761AA" d="M436.6,410.6c0,7.9-12.3,7.9-12.3,0C424.3,402.6,436.6,402.6,436.6,410.6z"/>
		<path fill="#1761AA" d="M439,394.7c0,6.9-10.8,6.9-10.8,0S439,387.8,439,394.7z"/>
		<path fill="#1761AA" d="M476.9,412.1c0,9.9-15.4,9.9-15.4,0S476.9,402.2,476.9,412.1z"/>
		<path fill="#1761AA" d="M331.7,645.6c0-9.9,15.4-9.9,15.4,0C347.1,655.5,331.7,655.5,331.7,645.6z"/>
		<path fill="#1761AA" d="M366.1,694.4c0,11.4-17.7,11.4-17.7,0C348.4,683,366.1,683,366.1,694.4z"/>
		<path fill="#1761AA" d="M357.5,675.3c0,7.9-12.3,7.9-12.3,0S357.5,667.4,357.5,675.3z"/>
		<path fill="#1761AA" d="M244,510.7c0-11.9,18.4-11.9,18.4,0C262.4,522.5,244,522.5,244,510.7z"/>
		<path fill="#1761AA" d="M108.3,437.9c0,9.9-15.4,9.9-15.4,0C93,428,108.3,428,108.3,437.9z"/>
		<path fill="#1761AA" d="M124.2,509.9c0,11.4-17.7,11.4-17.7,0C106.5,498.5,124.2,498.5,124.2,509.9z"/>
		<path fill="#1761AA" d="M91.5,644.5c0,8.9-13.8,8.9-13.8,0C77.6,635.7,91.5,635.7,91.5,644.5z"/>
		<path fill="#1761AA" d="M107.6,693.6c0,8.9-13.8,8.9-13.8,0C93.7,684.6,107.6,684.6,107.6,693.6z"/>
		<path fill="#1761AA" d="M67.3,608.5c0,10.9-16.9,10.9-16.9,0C50.4,597.6,67.3,597.7,67.3,608.5z"/>
		<path fill="#1761AA" d="M30,553.5c0,9.4-14.6,9.4-14.6,0C15.4,544.1,30,544,30,553.5z"/>
		<path fill="#1761AA" d="M25.3,602.2c0,7.9-12.3,7.9-12.3,0C13.1,594.3,25.3,594.3,25.3,602.2z"/>
		<path fill="#1761AA" d="M90.3,388.4c0,7.9-12.3,7.9-12.3,0S90.3,380.5,90.3,388.4z"/>
		<path fill="#1761AA" d="M67.7,351.1c0,10.4-16.1,10.4-16.1,0S67.7,340.8,67.7,351.1z"/>
		<path fill="#1761AA" d="M26.9,346.8c0,8.9-13.8,8.9-13.8,0C13.1,337.9,26.9,337.9,26.9,346.8z"/>
		<path fill="#1761AA" d="M93.7,286.9c0,9.9-15.4,9.9-15.4,0C78.4,277.1,93.7,277.1,93.7,286.9z"/>
		<path fill="#1761AA" d="M203.9,311.1c0,8.9-13.8,8.9-13.8,0S203.9,302.2,203.9,311.1z"/>
		<path fill="#1761AA" d="M226.1,353.5c0-8.9,13.8-8.9,13.8,0S226.1,362.4,226.1,353.5z"/>
		<path fill="#1761AA" d="M323,352.3c0,10.4-16.1,10.4-16.1,0C306.8,341.9,323,341.9,323,352.3z"/>
		<path fill="#1761AA" d="M558.1,516.2c0-10.4,16.1-10.4,16.1,0C574.2,526.6,558.1,526.6,558.1,516.2z"/>
		<path fill="#1761AA" d="M605.2,544.4c0,10.4-16.1,10.4-16.1,0C589,533.9,605.2,533.9,605.2,544.4z"/>
		<path fill="#1761AA" d="M701.3,373.3c0,10.4-16.1,10.4-16.1,0S701.3,362.9,701.3,373.3z"/>
		<path fill="#1761AA" d="M683.6,392.8c0-7.9,12.3-7.9,12.3,0C695.8,400.7,683.6,400.7,683.6,392.8z"/>
		<path fill="#1761AA" d="M680.7,410.6c0-5.9,9.2-5.9,9.2,0S680.7,416.5,680.7,410.6z"/>
		<path fill="#1761AA" d="M607.1,287.8c0,12.9-20,12.9-20,0S607.1,274.9,607.1,287.8z"/>
		<path fill="#1761AA" d="M349.1,289.3c0,9.9-15.4,9.9-15.4,0S349.1,279.4,349.1,289.3z"/>
		<path fill="#1761AA" d="M29.3,296.8c0,7.9-12.3,7.9-12.3,0S29.3,288.9,29.3,296.8z"/>
		<path fill="#1761AA" d="M62.5,517.4c0,11.4-17.7,11.4-17.7,0C44.8,506,62.5,506,62.5,517.4z"/>
		<path fill="#1761AA" d="M189.6,373.7c0,8.9-13.8,8.9-13.8,0S189.6,364.8,189.6,373.7z"/>
		<path fill="#1761AA" d="M279.1,470.7c0-8.9,13.8-8.9,13.8,0S279.1,479.6,279.1,470.7z"/>
		<path fill="#1761AA" d="M270.8,347.2c0-6.9,10.8-6.9,10.8,0C281.5,354.1,270.8,354.1,270.8,347.2z"/>
		<path fill="#1761AA" d="M39.1,469.5c0,10.9-16.9,10.9-16.9,0C22.2,458.6,39.1,458.6,39.1,469.5z"/>
		<path fill="#1761AA" d="M734.7,608.9c0-10.9,16.9-10.9,16.9,0C751.6,619.8,734.7,619.8,734.7,608.9z"/>
		<path fill="#1761AA" d="M3.9,767.3c0,4.8-3.2,7.4-6.9,8.1v-16.1C0.7,759.8,3.9,762.4,3.9,767.3z"/>
		<path fill="#1761AA" d="M5.8,511.5c0,5.8-4.3,8.9-8.8,9.3v-18.5C1.5,502.5,5.8,505.6,5.8,511.5z"/>
		<path fill="#1761AA" d="M495.4,608.5c0,10.4-16.1,10.4-16.1,0C479.3,598.1,495.4,598.1,495.4,608.5z"/>
		<path fill="#1761AA" d="M483.2,594.7c0,7.4-11.5,7.4-11.5,0C471.8,587.2,483.2,587.2,483.2,594.7z"/>
		<path fill="#1761AA" d="M303.2,773.2c0-8.4,13.1-8.4,13.1,0C316.3,781.6,303.2,781.6,303.2,773.2z"/>
		<path fill="#1761AA" d="M279.5,726.4c0-8.4,13.1-8.4,13.1,0C292.5,734.8,279.5,734.9,279.5,726.4z"/>
		<path fill="#1761AA" d="M270,603.8c0-8.4,13.1-8.4,13.1,0C283.1,612.2,270,612.2,270,603.8z"/>
		<path fill="#1761AA" d="M205,568.5c0,10.4-16.1,10.4-16.1,0C188.9,558.2,205,558.1,205,568.5z"/>
		<path fill="#1761AA" d="M91.1,545.1c0,8.4-13.1,8.4-13.1,0C78,536.7,91.1,536.7,91.1,545.1z"/>
		<path fill="#1761AA" d="M37.6,725.7c0,8.4-13.1,8.4-13.1,0C24.5,717.3,37.6,717.2,37.6,725.7z"/>
		<path fill="#1761AA" d="M260.4,767.3c0,11.4-17.7,11.4-17.7,0C242.7,755.8,260.4,755.8,260.4,767.3z"/>
		<path fill="#1761AA" d="M496.4,511.5c0-13.4,20.7-13.4,20.7,0S496.4,524.8,496.4,511.5z"/>
		<path fill="#1761AA" d="M278.8,981.8c0-9.4,14.6-9.4,14.6,0C293.2,991.3,278.8,991.3,278.8,981.8z"/>
		<path fill="#1761AA" d="M281.5,858.3c0,7.9-12.3,7.9-12.3,0S281.5,850.4,281.5,858.3z"/>
		<path fill="#1761AA" d="M175.3,725.3c0,11.4-17.7,11.4-17.7,0S175.3,714,175.3,725.3z"/>
		<path fill="#1761AA" d="M320.4,1023h-18.2C305.9,1016.5,316.7,1016.5,320.4,1023z"/>
		<path fill="#1761AA" d="M56.4,1023h-4.7C53.2,1022.5,54.9,1022.5,56.4,1023z"/>
		<path fill="#1761AA" d="M573.6,1023h-14.7C562.2,1018.2,570.3,1018.2,573.6,1023z"/>
		<path fill="#1761AA" d="M259.4,1022.6c0,0.2,0,0.2,0,0.4h-16.1c0-0.2,0-0.2,0-0.4C243.3,1012.2,259.4,1012.2,259.4,1022.6z"/>
		<path fill="#1761AA" d="M619.7,255.3h15.1C631.8,261,622.6,261,619.7,255.3z"/>
		<path fill="#1761AA" d="M107.2,255.3h14.7C119.9,262.1,109.2,262.1,107.2,255.3z"/>
		<path fill="#1761AA" d="M365.2,255.3h11.1C374.2,259.6,367.3,259.6,365.2,255.3z"/>
		<path fill="#1761AA" d="M300.9,260.4c0-2,0.5-3.8,1.3-5.1h18.2c0.8,1.4,1.3,3.1,1.3,5.1C321.7,273.8,300.9,273.8,300.9,260.4z"/>
		<path fill="#1761AA" d="M61,261.6c0,8.9-13.8,8.9-13.8,0c0-3.5,2.1-5.5,4.6-6.3h4.7C58.9,256.1,61,258.2,61,261.6z"/>
		<path fill="#1761AA" d="M557.4,260.3c0-2,0.5-3.7,1.5-5h14.7c0.9,1.3,1.5,3,1.5,5C575.1,271.7,557.4,271.7,557.4,260.3z"/>
		<path fill="#1761AA" d="M243.3,255.3h16.1C258.9,265.2,243.7,265.2,243.3,255.3z"/>
		<path fill="#1761AA" d="M751.2,256.7c0-0.5,0.1-0.9,0.1-1.4h13.2v10.1C758.9,267.4,751.2,264.5,751.2,256.7z"/>
		<path fill="#1761AA" d="M764.5,1015.8v7.2h-13.2C752.2,1016.2,759.2,1013.9,764.5,1015.8z"/>
		<path fill="#1761AA" d="M-3,265.4v-10.1h5.8c0.1,0.5,0.1,0.9,0.1,1.4C2.9,261.3,0.3,264.1-3,265.4z"/>
		<path fill="#1761AA" d="M2.8,1023H-3v-7.2C-0.1,1016.9,2.4,1019.2,2.8,1023z"/>
	</g>
	<path fill="#1761AA" d="M223.4,669.1c0,12.4-19.2,12.4-19.2,0S223.4,656.7,223.4,669.1z"/>
	<path fill="#1761AA" d="M495.7,712.8c0,10.4-16.1,10.4-16.1,0C479.6,702.5,495.7,702.5,495.7,712.8z"/>
	<path fill="#1761AA" d="M474.2,921.7c0,7.9-12.3,7.9-12.3,0S474.2,913.8,474.2,921.7z"/>
	<path fill="#1761AA" d="M153,604c0,7.9-12.3,7.9-12.3,0C140.7,596,153,596,153,604z"/>
	<path fill="#1761AA" d="M545.2,903c0,10.9-16.9,10.9-16.9,0S545.2,892.1,545.2,903z"/>
	<path fill="#1761AA" d="M690.7,689.6c0,10.9-16.9,10.9-16.9,0S690.7,678.7,690.7,689.6z"/>
	<path fill="#1761AA" d="M218.7,447.7c0,10.9-16.9,10.9-16.9,0S218.7,436.9,218.7,447.7z"/>
	<path fill="#1761AA" d="M539,345.2c0,10.9-16.9,10.9-16.9,0S539,334.3,539,345.2z"/>
	<path fill="#1761AA" d="M544.6,388.9c0,8.9-13.8,8.9-13.8,0C530.7,379.9,544.6,379.9,544.6,388.9z"/>
	<path fill="#1761AA" d="M544.7,552.2c0,11.4-17.7,11.4-17.7,0C527.1,540.8,544.7,540.8,544.7,552.2z"/>
	<path fill="#1761AA" d="M412.6,604.9c0,11.4-17.7,11.4-17.7,0C395,593.5,412.6,593.5,412.6,604.9z"/>
	<path fill="#1761AA" d="M493,455.7c0,10.4-16.1,10.4-16.1,0C476.9,445.5,493,445.5,493,455.7z"/>
	<path fill="#1761AA" d="M751.9,354.1c0,10.4-16.1,10.4-16.1,0C735.8,343.6,751.9,343.6,751.9,354.1z"/>
	<path fill="#1761AA" d="M427.1,799.5c0,10.4-16.1,10.4-16.1,0S427.1,789.1,427.1,799.5z"/>
	<path fill="#1761AA" d="M428.9,752.1c0,10.4-16.1,10.4-16.1,0C412.7,741.7,428.9,741.7,428.9,752.1z"/>
	<path fill="#1761AA" d="M396.4,722.7c0,8.9-13.8,8.9-13.8,0C382.6,713.7,396.4,713.7,396.4,722.7z"/>
	<path fill="#1761AA" d="M392.8,657.5c0,8.9-13.8,8.9-13.8,0C379.1,648.5,392.8,648.5,392.8,657.5z"/>
	<path fill="#1761AA" d="M549,979.8c0,8.9-13.8,8.9-13.8,0S549,970.9,549,979.8z"/>
	<path fill="#1761AA" d="M319.7,820c0,8.9-13.8,8.9-13.8,0S319.7,811.1,319.7,820z"/>
	<path fill="#1761AA" d="M286.7,296.9c0,8.9-13.8,8.9-13.8,0C273,288,286.7,288,286.7,296.9z"/>
	<path fill="#1761AA" d="M542.8,296c0,8.9-13.8,8.9-13.8,0S542.8,287.1,542.8,296z"/>
	<path fill="#1761AA" d="M241.4,610.2c0,11.4-17.7,11.4-17.7,0C223.7,598.8,241.4,598.9,241.4,610.2z"/>
	<path fill="#1761AA" d="M289.5,552.2c0,11.4-17.7,11.4-17.7,0C271.8,540.8,289.5,540.8,289.5,552.2z"/>
	<path fill="#1761AA" d="M288.6,811.1c0,11.4-17.7,11.4-17.7,0S288.6,799.7,288.6,811.1z"/>
	<path fill="#1761AA" d="M435,689.5c0,11.4-17.7,11.4-17.7,0S435,678.1,435,689.5z"/>
	<path fill="#1761AA" d="M518.8,676.1c0,11.4-17.7,11.4-17.7,0C501.2,664.7,518.8,664.7,518.8,676.1z"/>
	<path fill="#1761AA" d="M435,945.7c0,11.4-17.7,11.4-17.7,0C417.3,934.3,435,934.3,435,945.7z"/>
	<path fill="#1761AA" d="M221.8,924.2c0,11.4-17.7,11.4-17.7,0C204.1,912.9,221.8,912.9,221.8,924.2z"/>
	<path fill="#1761AA" d="M389.5,305.7c0,11.4-17.7,11.4-17.7,0S389.5,294.3,389.5,305.7z"/>
	<path fill="#1761AA" d="M666.3,860.9c0,10.4-16.1,10.4-16.1,0C650.2,850.4,666.3,850.4,666.3,860.9z"/>
	<path fill="#1761AA" d="M394,914.4c0,10.4-16.1,10.4-16.1,0C378,904,394,904,394,914.4z"/>
	<path fill="#1761AA" d="M137.1,402.1c0,10.4-16.1,10.4-16.1,0C120.9,391.7,137.1,391.7,137.1,402.1z"/>
	<path fill="#1761AA" d="M289.6,646.6c0,10.4-16.1,10.4-16.1,0C273.6,636.3,289.6,636.3,289.6,646.6z"/>
	<path fill="#1761AA" d="M387.9,561c0,9.4-14.6,9.4-14.6,0C373.4,551.6,387.9,551.6,387.9,561z"/>
	<path fill="#1761AA" d="M680.6,797.5c0,9.4-14.6,9.4-14.6,0S680.6,788.1,680.6,797.5z"/>
	<path fill="#1761AA" d="M665.7,604.7c0,8.4-13.1,8.4-13.1,0C652.6,596.3,665.7,596.3,665.7,604.7z"/>
	<path fill="#1761AA" d="M601.3,769c0,8.4-13.1,8.4-13.1,0S601.3,760.5,601.3,769z"/>
	<path fill="#1761AA" d="M172.1,494.9c0,8.4-13.1,8.4-13.1,0S172.1,486.5,172.1,494.9z"/>
	<path fill="#1761AA" d="M174.8,469c0,8.4-13.1,8.4-13.1,0S174.8,460.6,174.8,469z"/>
	<path fill="#1761AA" d="M249.8,436.1c0,8.4-13.1,8.4-13.1,0S249.8,427.6,249.8,436.1z"/>
	<path fill="#1761AA" d="M239.1,416.4c0,8.4-13.1,8.4-13.1,0S239.1,408,239.1,416.4z"/>
	<path fill="#1761AA" d="M256.9,407.5c0,8.4-13.1,8.4-13.1,0C243.8,399.1,256.9,399.1,256.9,407.5z"/>
	<path fill="#1761AA" d="M289,421.8c0,8.4-13.1,8.4-13.1,0C276,413.4,289,413.4,289,421.8z"/>
	<path fill="#1761AA" d="M150.7,295.9c0,8.4-13.1,8.4-13.1,0C137.6,287.5,150.7,287.5,150.7,295.9z"/>
	<path fill="#1761AA" d="M193.5,766.3c0,8.4-13.1,8.4-13.1,0S193.5,757.8,193.5,766.3z"/>
	<path fill="#1761AA" d="M188.2,885c0,8.4-13.1,8.4-13.1,0C175.1,876.6,188.2,876.5,188.2,885z"/>
	<path fill="#1761AA" d="M267.5,463.6c0,9.4-14.6,9.4-14.6,0C253,454.3,267.5,454.3,267.5,463.6z"/>
	<path fill="#1761AA" d="M289.6,391.4c0,10.4-16.1,10.4-16.1,0C273.6,381,289.6,381,289.6,391.4z"/>
	<path fill="#1761AA" d="M317.7,388.7c0,7.4-11.5,7.4-11.5,0S317.7,381.3,317.7,388.7z"/>
	<path fill="#1761AA" d="M156.2,647.5c0,7.4-11.5,7.4-11.5,0S156.2,640.1,156.2,647.5z"/>
	<path fill="#1761AA" d="M194.2,629.8c0,5.8-4.9,10.8-10.8,10.8c-5.9,0-10.8-4.9-10.8-10.8c0-5.8,4.9-10.8,10.8-10.8
		S194.2,623.9,194.2,629.8z"/>
	<path fill="#1761AA" d="M370.9,595.8c0,5.8-4.9,10.8-10.8,10.8c-5.8,0-10.8-4.9-10.8-10.8c0-5.9,4.9-10.8,10.8-10.8
		C366,585.1,370.9,590,370.9,595.8z"/>
</g>
</svg>
